<?xml version="1.0" encoding="UTF-8" standalone="no"?>
<!DOCTYPE svg  PUBLIC '-//W3C//DTD SVG 1.1//EN'  'http://www.w3.org/Graphics/SVG/1.1/DTD/svg11.dtd'>
<svg xmlns="http://www.w3.org/2000/svg">
<defs>
<font id="Exo2-Regular" horiz-adv-x="668">
<font-face underline-position="-50" font-weight="400" descent="-200" panose-1="0 0 5 0 0 0 0 0 0 0" units-per-em="1000" unicode-range="U+0020-FB02" bbox="-174 -243 1218 934" x-height="487" underline-thickness="50" font-family="Exo2" ascent="800" cap-height="690"/>
<missing-glyph horiz-adv-x="1000"/>
<glyph glyph-name=".notdef" horiz-adv-x="1000"/>
<glyph glyph-name=".null" horiz-adv-x="0"/>
<glyph glyph-name="nonmarkingreturn" horiz-adv-x="1000"/>
<glyph glyph-name="space" horiz-adv-x="223" unicode=" "/>
<glyph glyph-name="exclam" horiz-adv-x="273" unicode="!" d="M126 118h22q17 0 24.5 -7t7.5 -25v-54q0 -18 -7.5 -25t-24.5 -7h-22q-17 0 -24 7t-7 25v54q0 18 7 25t24 7zM179 389l-8 -178h-68l-9 178v306h85v-306z"/>
<glyph glyph-name="quotedbl" horiz-adv-x="353" unicode='&quot;' d="M278 475h-58l-6 215h69zM134 475h-59l-5 215h70z"/>
<glyph glyph-name="numbersign" horiz-adv-x="685" unicode="#" d="M452 448h-183l-32 -180h183zM520 448l-32 -180h110l-11 -55h-108l-37 -213h-68l37 213h-183l-37 -213h-68l37 213h-116l11 55h114l32 180h-115l11 55h113l33 187h68l-33 -187h183l33 187h68l-33 -187h111l-11 -55h-109z"/>
<glyph glyph-name="dollar" horiz-adv-x="564" unicode="$" d="M303 300l-18 -230q81 0 109.5 20.5t28.5 87.5q0 57 -19 79.5t-68 34.5zM287 623h-2q-44 0 -65 -2t-41 -12t-26.5 -31.5t-6.5 -59.5q0 -55 19.5 -78t68.5 -35l36 -9zM315 385l58 -15q77 -19 108.5 -65t31.5 -129q0 -114 -51.5 -151t-180.5 -37h-2l-9 -115h-46l9 116 q-90 4 -166 18l6 67q32 -1 69.5 -2t59 -1.5t38.5 -0.5l18 242l-64 16q-73 18 -105 64.5t-32 127.5q0 60 12.5 96.5t43 55t68 24.5t100.5 6h12l7 97h45l-7 -99q83 -3 148 -18l-6 -64q-81 4 -148 5z"/>
<glyph glyph-name="percent" horiz-adv-x="894" unicode="%" d="M685 346q-54 0 -74 -31.5t-20 -110.5v-8v-8q0 -79 20 -111.5t74 -32.5t75 33.5t21 118.5q0 84 -21 117t-75 33zM686 400q88 0 124 -47t36 -157q0 -111 -36 -158t-124 -47t-124 47t-36 158q0 110 36 157t124 47zM207 649q-54 0 -74.5 -33.5t-20.5 -117.5t20.5 -117.5 t74.5 -33.5t74.5 33t20.5 118q0 84 -20.5 117.5t-74.5 33.5zM252 0h-60l447 690h60zM207 703q89 0 125 -47t36 -158t-36 -158t-125 -47q-88 0 -124 47t-36 158t36 158t124 47z"/>
<glyph glyph-name="ampersand" horiz-adv-x="772" unicode="&amp;" d="M497 324h-191q-83 0 -115 -28.5t-32 -106.5q0 -70 28 -96.5t102 -26.5q132 1 208 79v179zM715 66l10 -62q-45 -13 -106 -13q-104 0 -120 86q-44 -47 -97 -67t-133 -20q-110 0 -156 41t-46 144q0 83 31 129t104 52v4q-61 6 -88 45.5t-27 115.5q0 60 14 95.5t49 54t78.5 24 t119.5 5.5q92 0 159 -10l-10 -65q-40 3 -152 3q-99 0 -134 -22t-35 -97q0 -69 29 -93.5t105 -24.5h188l8 128h71v-128h125v-67h-125v-193q0 -35 14.5 -50t49.5 -15h74z"/>
<glyph glyph-name="quotesingle" horiz-adv-x="209" unicode="&apos;" d="M134 475h-59l-5 215h70z"/>
<glyph glyph-name="parenleft" horiz-adv-x="359" unicode="(" d="M317 790l11 -41q-99 -48 -145 -155.5t-46 -280.5q0 -339 191 -437l-11 -41q-136 52 -199.5 168t-63.5 309q0 194 63.5 310t199.5 168z"/>
<glyph glyph-name="parenright" horiz-adv-x="359" unicode=")" d="M32 749l10 41q136 -52 200 -167.5t64 -310.5q0 -193 -64 -309t-200 -168l-10 41q98 51 144 159t46 278q0 173 -46 280.5t-144 155.5z"/>
<glyph glyph-name="asterisk" horiz-adv-x="450" unicode="*" d="M397 551l-125 -32l-12 14v22l120 46zM189 555v-22l-11 -14l-124 33l17 49zM243 530l100 -129l-41 -30l-77 123l-77 -122l-42 30l100 128l-7 161h52z"/>
<glyph glyph-name="plus" horiz-adv-x="551" unicode="+" d="M494 267h-187v-177h-65v177h-186v64h186v176h66v-176h186v-64z"/>
<glyph glyph-name="comma" horiz-adv-x="228" unicode="," d="M102 118h25q18 0 24.5 -7t6.5 -25v-64q-1 -85 -35 -154l-40 12q10 59 10 120q-24 0 -24 28v58q1 32 33 32z"/>
<glyph glyph-name="hyphen" horiz-adv-x="449" unicode="-" d="M377 220h-305v65h305v-65z"/>
<glyph glyph-name="period" horiz-adv-x="229" unicode="." d="M100 118h28q18 0 25 -7t7 -25v-54q0 -18 -7 -25t-25 -7h-28q-17 0 -24.5 7t-7.5 25v54q0 18 7.5 25t24.5 7z"/>
<glyph glyph-name="slash" horiz-adv-x="517" unicode="/" d="M97 -66h-70l393 756h70z"/>
<glyph glyph-name="zero" horiz-adv-x="603" unicode="0" d="M301 626q-85 0 -118 -63t-33 -218t33 -218t118 -63t118.5 63t33.5 218t-33.5 218t-118.5 63zM301 703q131 0 184.5 -83t53.5 -275t-53.5 -275t-184.5 -83t-184 83t-53 275t53 275t184 83z"/>
<glyph glyph-name="one" horiz-adv-x="398" unicode="1" d="M286 0h-88v547q0 35 5 60l-169 -53l-12 65l176 71h88v-690z"/>
<glyph glyph-name="two" horiz-adv-x="562" unicode="2" d="M67 608l-6 68q111 26 210 26q109 0 160.5 -30.5t51.5 -118.5q0 -65 -27 -119.5t-96 -131.5l-198 -221q47 4 112 4h234v-85h-453v55q0 24 13 38l200 226q68 73 97 126t29 98v6q-1 47 -31.5 61t-97.5 14q-100 0 -198 -16z"/>
<glyph glyph-name="three" horiz-adv-x="556" unicode="3" d="M71 617l-7 68q102 18 194 18q116 0 164.5 -35t48.5 -125q0 -154 -101 -174v-4q64 -11 91 -54t29 -119v-8q0 -101 -49.5 -149t-169.5 -48q-93 0 -219 18l6 71q113 -10 191 -10q84 0 119 30t35 105q0 63 -28.5 95t-108.5 32h-128v69h128q74 1 97.5 34t23.5 92 q-1 63 -30 82.5t-111 19.5q-83 0 -175 -8z"/>
<glyph glyph-name="four" horiz-adv-x="615" unicode="4" d="M571 178l-89 -9v-169h-83v169h-286q-42 0 -58 26.5t-16 46.5q0 17 8 34l196 414h87l-193 -408q-4 -10 -4 -18q0 -7 5.5 -15t23.5 -8h237v203l15 114h68v-317h89v-63z"/>
<glyph glyph-name="five" horiz-adv-x="536" unicode="5" d="M456 615h-290l-10 -188l74 -6q138 -10 194 -56.5t56 -153.5q0 -40 -5 -69.5t-19.5 -59t-38.5 -49.5t-64.5 -32.5t-95.5 -12.5q-96 0 -205 25l10 71q101 -18 175 -18q92 0 123.5 33t33.5 108v11q0 25 -4 45.5t-18.5 36t-28 24t-47 14.5t-59.5 8.5t-79 5.5l-46 3 q-15 2 -24.5 12.5t-8.5 26.5l16 296h365z"/>
<glyph glyph-name="six" horiz-adv-x="572" unicode="6" d="M300 63q83 0 108 37t25 123q0 87 -26.5 121.5t-101.5 34.5q-43 0 -76.5 -13.5t-75.5 -50.5q0 -64 2.5 -101t10.5 -70t24.5 -48.5t42.5 -24t67 -8.5zM473 687l-8 -64q-44 4 -131 4q-51 0 -81.5 -9t-53.5 -35.5t-33 -75t-12 -129.5q36 40 75.5 56t98.5 16q108 0 148.5 -50 t40.5 -177q0 -58 -8 -97.5t-30.5 -72.5t-67 -49t-112.5 -16q-60 0 -99.5 11t-66.5 33t-41.5 64t-20 96t-5.5 136q0 97 11 163.5t30.5 108t54 64t74 30.5t98.5 8q83 0 139 -15z"/>
<glyph glyph-name="seven" horiz-adv-x="512" unicode="7" d="M39 690h390q31 0 40.5 -12.5t9.5 -26.5q0 -10 -4 -22l-215 -629h-88l194 564q9 27 21 51h-344z"/>
<glyph glyph-name="eight" horiz-adv-x="607" unicode="8" d="M306 323q-94 -1 -124 -27t-30 -106q0 -71 31 -97.5t122 -26.5q89 0 119 26t30 98q0 82 -28.5 107.5t-119.5 25.5zM305 629q-84 0 -112 -25t-28 -94q0 -71 27.5 -94t113.5 -23t111.5 23t25.5 94q0 69 -27 94t-111 25zM183 356v4q-99 11 -99 158q0 98 46.5 140t173.5 42 t173 -41.5t46 -140.5q0 -147 -98 -158v-4q62 -6 87.5 -52t25.5 -132q0 -98 -48.5 -139.5t-185.5 -42.5h-6q-130 0 -179.5 41.5t-49.5 140.5q0 86 26 132t88 52z"/>
<glyph glyph-name="nine" horiz-adv-x="572" unicode="9" d="M265 310q44 0 77.5 14t75.5 52q0 54 -1.5 86.5t-6.5 64.5t-14 48t-25 29.5t-39 18t-57 4.5q-81 0 -108.5 -38.5t-27.5 -117.5v-6v-5q0 -75 27.5 -112.5t98.5 -37.5zM87 3l8 65q48 -4 141 -4q69 0 105.5 20t55 74t21.5 157q-37 -43 -76.5 -59t-99.5 -16q-187 0 -187 225 q0 123 50 180t171 57q51 0 86.5 -7t61.5 -25t41 -42t23.5 -66.5t11.5 -89.5t3 -119q0 -116 -14 -187.5t-48.5 -111t-81 -53t-123.5 -13.5q-87 0 -149 15z"/>
<glyph glyph-name="colon" horiz-adv-x="236" unicode=":" d="M101 118h28q17 0 24.5 -7t7.5 -25v-54q0 -18 -7.5 -25t-24.5 -7h-28q-17 0 -24.5 7t-7.5 25v54q0 18 7.5 25t24.5 7zM101 440h28q17 0 24.5 -7t7.5 -24v-55q0 -18 -7.5 -25t-24.5 -7h-28q-17 0 -24.5 7t-7.5 25v55q0 17 7.5 24t24.5 7z"/>
<glyph glyph-name="semicolon" horiz-adv-x="237" unicode=";" d="M107 118h25q18 0 24.5 -7t6.5 -25v-64q-1 -84 -34 -154l-41 12q10 59 10 120q-24 0 -24 28v58q1 18 8.5 25t24.5 7zM105 440h29q17 0 24 -7t7 -24v-55q0 -18 -7 -25t-24 -7h-29q-17 0 -24 7t-7 25v55q0 17 7 24t24 7z"/>
<glyph glyph-name="less" horiz-adv-x="530" unicode="&lt;" d="M459 438l-332 -140l332 -137v-68l-406 171v68l406 174v-68z"/>
<glyph glyph-name="equal" horiz-adv-x="585" unicode="=" d="M512 155h-438v64h438v-64zM512 367h-438v63h438v-63z"/>
<glyph glyph-name="greater" horiz-adv-x="530" unicode="&gt;" d="M477 332v-68l-406 -171v68l332 137l-332 140v68z"/>
<glyph glyph-name="question" horiz-adv-x="505" unicode="?" d="M232 118h23q17 0 24 -7t7 -25v-54q0 -18 -7 -25t-24 -7h-23q-17 0 -24 7t-7 25v54q0 18 7 25t24 7zM45 630l-5 61q7 1 31 5.5t31 5.5l28 4t36 3.5t40 1.5t54 1q202 0 202 -155q0 -35 -13 -65.5t-33 -52t-43 -47t-43 -48.5t-34.5 -58t-15.5 -75h-73v6q0 48 16 89.5t40 70 t48.5 54t42 53.5t18.5 58v6q0 46 -30.5 69t-99.5 23q-85 0 -197 -10z"/>
<glyph glyph-name="at" horiz-adv-x="718" unicode="@" d="M566 345l-178 -4q-35 -1 -49.5 -14.5t-14.5 -42.5v-26q0 -66 66 -66q44 0 93.5 17.5t82.5 48.5v87zM352 585h143q75 0 113 -33.5t38 -108.5v-311h-64l-8 75q-31 -32 -86.5 -57.5t-112.5 -25.5q-60 0 -95.5 30.5t-35.5 88.5v51q0 49 29.5 76t85.5 27h207v43 q0 41 -18.5 57.5t-67.5 16.5h-128q-49 0 -75 -1.5t-52 -10.5t-36.5 -22.5t-19.5 -44t-11 -68.5t-2 -101q0 -49 1 -81.5t6.5 -61t10.5 -45t20 -30t28 -19.5t41.5 -10t52.5 -4.5t69 -0.5h258v-64q-136 -8 -257 -8h-32q-53 0 -94 3t-79 16.5t-56 33t-31 60t-16 87t-3 124.5 q0 76 3 121.5t14 84.5t27.5 58t50.5 33t74.5 17.5t107.5 4.5z"/>
<glyph glyph-name="A" horiz-adv-x="622" unicode="A" d="M429 292l-87 274q-9 26 -17 56h-28l-17 -56l-87 -274h236zM453 216h-284l-68 -216h-91l222 666q6 24 33 24h92q27 0 33 -24l222 -666h-91z"/>
<glyph glyph-name="B" horiz-adv-x="620" unicode="B" d="M173 324v-256q41 -1 155 -1q84 0 114.5 24t30.5 96q0 79 -32.5 107t-118.5 30h-149zM173 391h148q77 1 106 25t29 92q0 69 -31.5 92t-117.5 23h-134v-232zM424 360v-4q75 -7 106.5 -52.5t31.5 -131.5q0 -104 -49 -142t-171 -38q-166 0 -255 8v690q79 8 224 8 q129 0 179.5 -37.5t50.5 -142.5q0 -75 -28 -113.5t-89 -44.5z"/>
<glyph glyph-name="C" horiz-adv-x="570" unicode="C" d="M525 77l9 -66q-83 -23 -202 -23q-149 0 -210 80t-61 277t61 277t210 80q107 0 188 -20l-9 -67q-90 9 -179 9q-101 0 -139.5 -60.5t-38.5 -218.5t38.5 -218.5t139.5 -60.5q116 0 193 11z"/>
<glyph glyph-name="D" horiz-adv-x="664" unicode="D" d="M175 621v-551q90 -2 158 -2q99 0 138 60.5t39 216.5t-39 217t-138 61q-64 0 -158 -2zM87 0v690q130 9 246 9q149 0 209 -77.5t60 -276.5t-60 -276.5t-209 -77.5q-116 0 -246 9z"/>
<glyph glyph-name="E" horiz-adv-x="560" unicode="E" d="M506 73l4 -68q-92 -6 -296 -6q-61 0 -96.5 32.5t-36.5 87.5v452q1 55 36.5 87.5t96.5 32.5q204 0 296 -6l-4 -69h-277q-60 0 -60 -66v-150h298v-71h-298v-189q0 -67 60 -67h277z"/>
<glyph glyph-name="F" horiz-adv-x="539" unicode="F" d="M499 616h-259q-35 0 -51 -15.5t-16 -50.5v-160h288v-71h-288v-319h-88v567q0 59 36 91.5t97 32.5q197 0 286 -7z"/>
<glyph glyph-name="G" horiz-adv-x="628" unicode="G" d="M496 0l-10 73q-88 -86 -206 -86q-115 0 -166.5 86t-51.5 274q0 203 63 279.5t225 76.5q109 0 192 -21l-9 -66q-84 8 -178 8q-79 0 -119.5 -20.5t-60.5 -81.5t-20 -181q0 -153 33 -215t116 -62q78 0 170 67v268h86v-399h-64z"/>
<glyph glyph-name="H" d="M581 690v-690h-88v331h-318v-331h-88v690h88v-283h318v283h88z" unicode="H"/>
<glyph glyph-name="I" horiz-adv-x="262" unicode="I" d="M175 0h-88v690h88v-690z"/>
<glyph glyph-name="J" horiz-adv-x="340" unicode="J" d="M256 690v-545q0 -76 -34.5 -115t-99.5 -39q-56 0 -92 13l10 62h50q78 0 78 76v548h88z"/>
<glyph glyph-name="K" horiz-adv-x="591" unicode="K" d="M253 324h-85q6 -38 6 -73v-251h-87v690h87v-216q0 -40 -6 -79h84l210 295h96l-201 -286q-12 -18 -38 -44v-2q28 -27 43 -48l210 -310h-99z"/>
<glyph glyph-name="L" horiz-adv-x="514" unicode="L" d="M172 690v-550q0 -66 67 -66h249l4 -68q-87 -7 -267 -7q-140 0 -140 130v561h87z"/>
<glyph glyph-name="M" horiz-adv-x="877" unicode="M" d="M640 690h99q36 0 36 -37l29 -653h-88l-25 617h-21l-154 -509q-8 -30 -38 -30h-79q-31 0 -40 30l-154 509h-20l-24 -617h-88l27 653q2 37 37 37h100q28 0 37 -30l129 -421q6 -18 15.5 -53.5t10.5 -39.5h18q3 11 11.5 43.5t14.5 51.5l129 419q8 30 38 30z"/>
<glyph glyph-name="N" horiz-adv-x="705" unicode="N" d="M618 690v-655q0 -35 -34 -35h-86q-27 0 -39 28l-233 489q-34 74 -39 91h-16q4 -40 4 -91v-517h-88v655q0 35 35 35h83q27 0 39 -28l226 -477q25 -49 47 -100h17q-3 54 -3 105v500h87z"/>
<glyph glyph-name="O" d="M334 624q-102 0 -141 -60.5t-39 -218.5t39 -218.5t141 -60.5t141 60.5t39 218.5t-39 218.5t-141 60.5zM334 703q152 0 212 -78.5t60 -279.5t-60 -279.5t-212 -78.5t-212.5 78.5t-60.5 279.5t60.5 279.5t212.5 78.5z" unicode="O"/>
<glyph glyph-name="P" horiz-adv-x="590" unicode="P" d="M175 343h148q77 1 105.5 29.5t28.5 110.5t-29 111t-105 29q-109 0 -148 -1v-279zM87 0v690q84 9 237 9q126 0 174 -45.5t48 -170.5t-46.5 -170.5t-165.5 -45.5q-82 0 -159 9v-276h-88z"/>
<glyph glyph-name="Q" horiz-adv-x="669" unicode="Q" d="M269 -96l25 53q110 -48 265 -70l-28 -88q-130 26 -262 105zM335 624q-102 0 -141 -60.5t-39 -218.5t39 -218.5t141 -60.5q101 0 140.5 60.5t39.5 218.5t-39.5 218.5t-140.5 60.5zM335 703q152 0 212 -78.5t60 -279.5t-60 -279.5t-212 -78.5t-212.5 78.5t-60.5 279.5 t60.5 279.5t212.5 78.5z"/>
<glyph glyph-name="R" horiz-adv-x="618" unicode="R" d="M174 364h149q78 1 107 28t29 103q0 75 -29 101.5t-107 26.5q-110 0 -149 -1v-258zM573 0h-94l-61 216q-13 39 -35 55.5t-57 16.5t-85.5 0.5t-66.5 0.5v-289h-87v690q84 9 238 9q123 0 173 -42.5t50 -156.5q0 -85 -29.5 -127t-97.5 -51v-5q28 -7 51 -32.5t34 -66.5z"/>
<glyph glyph-name="S" horiz-adv-x="561" unicode="S" d="M334 292l-143 36q-73 18 -104.5 64.5t-31.5 127.5q0 60 12.5 96.5t43 55t68 24.5t100.5 6q122 -2 205 -20l-6 -64q-97 5 -195 5q-44 0 -65 -2t-41 -12t-26.5 -31.5t-6.5 -59.5q0 -55 19.5 -78t67.5 -35l140 -35q77 -19 108 -65t31 -129q0 -114 -51.5 -151t-179.5 -37 q-109 0 -214 19l6 65q144 -5 196 -5h15q82 0 110.5 21t28.5 90q0 57 -19.5 79.5t-67.5 34.5z"/>
<glyph glyph-name="T" horiz-adv-x="581" unicode="T" d="M557 612h-223v-612h-88v612h-222v78h533v-78z"/>
<glyph glyph-name="U" horiz-adv-x="666" unicode="U" d="M584 690v-426q0 -151 -56 -214t-191 -63q-140 0 -197.5 63t-57.5 214v426h88v-426q0 -111 36 -154.5t127 -43.5q90 0 126.5 43.5t36.5 154.5v426h88z"/>
<glyph glyph-name="V" horiz-adv-x="609" unicode="V" d="M592 690l-209 -665q-9 -25 -34 -25h-89q-27 0 -34 25l-209 665h91l163 -547q14 -50 20 -75h27q10 41 21 76l162 546h91z"/>
<glyph glyph-name="W" horiz-adv-x="948" unicode="W" d="M917 690l-140 -664q-7 -26 -35 -26h-100q-29 0 -34 27l-108 519q-6 26 -16 78h-21l-15 -78l-107 -519q-7 -27 -35 -27h-101q-13 0 -22.5 7.5t-11.5 18.5l-140 664h93l108 -538q2 -9 14 -85h23q8 47 16 85l107 509q5 29 34 29h96q27 0 34 -29l107 -509q10 -49 14 -85h25 q9 60 13 84l109 539h93z"/>
<glyph glyph-name="X" horiz-adv-x="611" unicode="X" d="M318 324h-26l-171 -324h-96l194 357l-181 333h95l158 -298h29l158 298h95l-182 -333l195 -357h-96z"/>
<glyph glyph-name="Y" horiz-adv-x="569" unicode="Y" d="M328 242v-242h-88v243l-229 447h94l145 -291q12 -24 31 -78h7q16 44 31 77l145 292h93z"/>
<glyph glyph-name="Z" horiz-adv-x="566" unicode="Z" d="M519 75v-75h-471v75l368 540h-362v75h458v-75l-366 -540h373z"/>
<glyph glyph-name="bracketleft" horiz-adv-x="329" unicode="[" d="M288 712h-102q-14 0 -14 -16v-789q0 -16 14 -16h102v-56h-143q-54 0 -54 54v825q0 24 15.5 39t38.5 15h143v-56z"/>
<glyph glyph-name="backslash" horiz-adv-x="518" unicode="\" d="M491 -66h-71l-393 756h71z"/>
<glyph glyph-name="bracketright" horiz-adv-x="329" unicode="]" d="M41 768h142q24 0 39 -15t15 -39v-825q0 -24 -15 -39t-39 -15h-142v56h101q15 0 15 16v789q0 16 -15 16h-101v56z"/>
<glyph glyph-name="asciicircum" horiz-adv-x="426" unicode="^" d="M396 390l-34 -22l-144 174h-8l-145 -174l-35 22l153 210h61z"/>
<glyph glyph-name="underscore" horiz-adv-x="578" unicode="_" d="M508 -65h-438v65h438v-65z"/>
<glyph glyph-name="grave" horiz-adv-x="315" unicode="`" d="M250 577l-29 -39l-192 120l48 65z"/>
<glyph glyph-name="a" horiz-adv-x="549" unicode="a" d="M138 168v-31q0 -38 18 -55.5t58 -17.5h4q36 0 82 18q48 19 89 55v98h-188q-34 -1 -48.5 -18t-14.5 -49zM81 414l-8 63q134 22 235 22q85 0 126 -35.5t41 -120.5v-343h-67l-10 80q-35 -35 -87.5 -62t-113.5 -27q-67 0 -106.5 35.5t-39.5 100.5v53q0 57 35.5 88.5 t99.5 31.5h203v43q0 46 -21 65t-78 19q-72 0 -209 -13z"/>
<glyph glyph-name="b" horiz-adv-x="570" unicode="b" d="M161 353v-276q61 -17 124 -17h13q71 1 100 41.5t30 143.5q-1 103 -25 141.5t-93 38.5q-35 0 -67.5 -17t-81.5 -55zM161 700v-182q0 -70 -9 -108q87 89 188 89q91 0 133.5 -59.5t42.5 -194.5q0 -132 -48 -194.5t-168 -62.5q-125 0 -224 35v677h85z"/>
<glyph glyph-name="c" horiz-adv-x="489" unicode="c" d="M443 70l9 -57q-72 -25 -167 -25q-126 0 -178.5 57.5t-52.5 198.5t52.5 198t179.5 57q96 0 157 -23l-11 -55q-66 6 -132 6q-88 0 -122 -39t-34 -144q0 -106 34 -145t122 -39q80 0 143 10z"/>
<glyph glyph-name="d" horiz-adv-x="573" unicode="d" d="M409 129v269q-96 27 -149 27q-65 0 -91 -37t-26 -142t25.5 -144.5t86.5 -39.5q38 0 69 14.5t85 52.5zM494 700v-700h-66l-8 70q-93 -82 -193 -82q-90 0 -130.5 63.5t-40.5 193.5q0 139 44 196.5t140 57.5q95 0 173 -45q-4 44 -4 96v150h85z"/>
<glyph glyph-name="e" horiz-adv-x="537" unicode="e" d="M143 268h206q53 0 53 72q-1 47 -28 67t-92 20q-77 0 -107 -33.5t-32 -125.5zM371 202h-227q7 -84 41 -113t113 -29q83 0 169 12l9 -57q-65 -27 -189 -27q-126 0 -179.5 58.5t-53.5 198.5q0 141 52 197.5t172 56.5q109 0 159 -39.5t50 -119.5q2 -138 -116 -138z"/>
<glyph glyph-name="f" horiz-adv-x="380" unicode="f" d="M388 647h-100q-48 0 -67.5 -18.5t-19.5 -63.5v-78h156v-67h-156v-420h-85v420h-88v62l88 4v88q0 71 33 107t109 36q84 0 137 -7z"/>
<glyph glyph-name="g" horiz-adv-x="558" unicode="g" d="M341 23l-166 23q-51 -39 -51 -93q0 -51 30 -67t121 -16q89 0 119.5 16.5t30.5 66.5q0 36 -15.5 49t-68.5 21zM270 254q72 0 101 20.5t29 69.5t-28.5 69.5t-101.5 20.5q-72 0 -101 -20.5t-29 -69.5t29 -69.5t101 -20.5zM531 440l-72 -6q20 -33 20 -90q0 -82 -47 -118.5 t-162 -36.5q-56 0 -101 10q-13 -16 -13 -35q0 -8 2 -16q8 -28 45 -33l182 -29q68 -10 95.5 -42.5t27.5 -94.5q0 -85 -50.5 -118t-181.5 -33q-132 0 -183.5 32.5t-51.5 115.5q0 43 18 69t61 49q-34 27 -34 70v7q3 48 38 75q-62 33 -62 127q0 84 46.5 120t162.5 36 q69 0 113 -12h152z"/>
<glyph glyph-name="h" horiz-adv-x="581" unicode="h" d="M164 700v-193q0 -56 -6 -95q118 87 216 87q132 0 132 -134v-365h-86v341q0 48 -15.5 67t-53.5 19q-41 0 -82.5 -18t-105.5 -58v-351h-85v700h86z"/>
<glyph glyph-name="i" horiz-adv-x="248" unicode="i" d="M166 0h-84v487h84v-487zM104 694h40q26 0 26 -26v-57q0 -26 -26 -26h-40q-26 0 -26 26v57q0 26 26 26z"/>
<glyph glyph-name="j" horiz-adv-x="250" unicode="j" d="M168 487v-499q0 -58 -25 -108t-69 -83l-47 37q56 69 56 154v499h85zM106 694h40q25 0 25 -26v-57q0 -26 -25 -26h-40q-26 0 -26 26v57q0 26 26 26z"/>
<glyph glyph-name="k" horiz-adv-x="509" unicode="k" d="M224 244h-66q5 -45 5 -78v-166h-85v700h86v-311q0 -49 -5 -83h64l154 181h99l-153 -179q-15 -21 -34 -33v-2q20 -15 34 -39l169 -234h-99z"/>
<glyph glyph-name="l" horiz-adv-x="297" unicode="l" d="M164 700v-566q-1 -32 16 -48.5t50 -16.5h47l10 -65q-27 -13 -89 -13q-55 0 -87 32.5t-32 91.5v585h85z"/>
<glyph glyph-name="m" horiz-adv-x="876" unicode="m" d="M148 487l5 -77q103 89 199 89q102 0 123 -86q99 86 196 86q63 0 96.5 -34t33.5 -100v-365h-84v341q-1 45 -18.5 65.5t-57.5 20.5q-35 0 -67.5 -16t-92.5 -60v-351h-82v341q0 46 -18.5 66t-57.5 20q-35 0 -67.5 -16t-92.5 -59v-352h-85v487h70z"/>
<glyph glyph-name="n" horiz-adv-x="581" unicode="n" d="M150 487l6 -77q118 89 218 89q132 0 132 -134v-365h-85v341q0 48 -16 67t-54 19q-40 0 -80.5 -18t-107.5 -59v-350h-85v487h72z"/>
<glyph glyph-name="o" horiz-adv-x="568" unicode="o" d="M284 427q-80 0 -110 -39t-30 -145t30 -145t110 -39t110.5 39t30.5 145t-30.5 145t-110.5 39zM284 499q126 0 177.5 -58t51.5 -198t-51.5 -198t-177.5 -58q-125 0 -177 58t-52 198t52 198t177 58z"/>
<glyph glyph-name="p" horiz-adv-x="580" unicode="p" d="M163 350v-258q102 -30 156 -30q66 0 92 37t26 142q0 102 -24.5 143t-83.5 41q-38 0 -75.5 -17.5t-90.5 -57.5zM148 487l7 -78q39 42 94 66t108 24q87 0 127 -64t40 -194q0 -138 -44 -195.5t-140 -57.5t-180 50q3 -34 3 -98v-141h-85v688h70z"/>
<glyph glyph-name="q" horiz-adv-x="570" unicode="q" d="M409 128v282q-62 17 -123 17h-13q-74 -2 -102.5 -41.5t-28.5 -149.5q0 -93 23 -133.5t85 -40.5q40 0 74.5 15.5t84.5 50.5zM494 -201h-86v167q0 63 8 100q-95 -79 -194 -79q-85 0 -126 61.5t-41 193.5q0 133 48 195t171 62q120 0 220 -34v-666z"/>
<glyph glyph-name="r" horiz-adv-x="401" unicode="r" d="M383 499l-10 -80h-28q-37 0 -76.5 -14.5t-105.5 -47.5v-357h-85v487h66l9 -77q113 89 208 89h22z"/>
<glyph glyph-name="s" horiz-adv-x="508" unicode="s" d="M300 197l-140 32q-60 14 -85 45t-25 91q0 81 42 109q40 26 134 25h14q117 -2 205 -15l-7 -62q-152 5 -185 5h-13q-63 0 -84 -9q-23 -10 -23 -53q0 -35 15.5 -48t55.5 -22l142 -32q60 -15 86.5 -44.5t26.5 -89.5q0 -85 -47 -112.5t-161 -27.5q-102 0 -191 14l6 62 q71 -4 140 -4h28q85 0 114 13t29 55q0 33 -17.5 45.5t-59.5 22.5z"/>
<glyph glyph-name="t" horiz-adv-x="381" unicode="t" d="M200 420v-286q0 -35 15 -50t51 -15h74l10 -65q-46 -13 -110 -13q-61 0 -93 34t-32 98v297h-88v62l88 4v145h85v-144h155v-67h-155z"/>
<glyph glyph-name="u" horiz-adv-x="570" unicode="u" d="M492 487v-487h-68l-6 70q-110 -83 -210 -83q-133 0 -133 134v366h85v-342q-1 -46 17 -65t60 -19q37 0 75 16.5t95 53.5v356h85z"/>
<glyph glyph-name="v" horiz-adv-x="530" unicode="v" d="M511 487l-178 -466q-8 -21 -30 -21h-77q-22 0 -30 21l-178 466h91l120 -341q10 -28 29 -85h13l30 85l120 341h90z"/>
<glyph glyph-name="w" horiz-adv-x="824" unicode="w" d="M799 487l-142 -463q-6 -24 -33 -24h-77q-12 0 -21.5 7.5t-11.5 19.5l-80 331q-3 14 -8 39.5t-8 37.5h-12l-17 -77l-79 -331q-7 -27 -34 -27h-76q-27 0 -33 24l-142 463h88l101 -359q9 -31 16 -73h13l18 73l81 332q5 27 32 27h77q25 0 32 -28l80 -331q2 -11 8 -35.5 t9 -37.5h13q1 5 6.5 31.5t10.5 41.5l101 359h88z"/>
<glyph glyph-name="x" horiz-adv-x="528" unicode="x" d="M274 220h-20l-138 -220h-93l163 251l-151 236h92l126 -201h23l125 201h92l-151 -236l163 -251h-92z"/>
<glyph glyph-name="y" horiz-adv-x="529" unicode="y" d="M510 487l-195 -514q-64 -172 -213 -179l-8 56q57 18 89.5 49.5t52.5 79.5l8 21h-19q-24 0 -30 22l-177 465h91l129 -363q14 -41 18 -59h14q8 20 21 59l127 363h92z"/>
<glyph glyph-name="z" horiz-adv-x="510" unicode="z" d="M461 69v-69h-412v69l313 348h-310v70h406v-70l-314 -348h317z"/>
<glyph glyph-name="braceleft" horiz-adv-x="319" unicode="{" d="M276 768v-54q-51 0 -70.5 -19t-19.5 -66v-179v-6q0 -56 -18 -80.5t-71 -35.5q55 -17 73.5 -41t19.5 -77v-237q0 -46 19.5 -65t70.5 -19v-54q-15 -1 -29 -1q-68 0 -105.5 31t-37.5 103v256q0 19 -2.5 30t-13 19.5t-17.5 12t-29 11.5v62q39 12 48.5 22.5t9.5 54.5v199 q0 72 37.5 103t105.5 31q14 0 29 -1z"/>
<glyph glyph-name="bar" horiz-adv-x="246" unicode="|" d="M154 -169h-62v950h62v-950z"/>
<glyph glyph-name="braceright" horiz-adv-x="320" unicode="}" d="M44 714v54q15 1 29 1q68 0 105.5 -31t37.5 -103v-199q0 -44 9.5 -54.5t48.5 -22.5v-62q-28 -10 -37.5 -15.5t-17 -19t-7.5 -38.5v-256q0 -72 -37.5 -103t-105.5 -31q-14 0 -29 1v54q51 0 70.5 19t19.5 65v237q1 53 19.5 77t73.5 41q-53 11 -71 35.5t-18 80.5v6v179 q0 47 -19.5 66t-70.5 19z"/>
<glyph glyph-name="asciitilde" horiz-adv-x="525" unicode="~" d="M121 228h-44q-2 14 -2 27q0 40 19 66.5t55 26.5h5q37 -2 107 -29t99 -30q5 -1 9 -1q18 0 27 11.5t9 43.5h44q2 -14 2 -26q0 -39 -19 -65.5t-55 -26.5h-5q-43 2 -112 29t-94 30q-5 1 -9 1q-19 0 -27.5 -12t-8.5 -45z"/>
<glyph glyph-name="uni00A0" horiz-adv-x="223" unicode=" "/>
<glyph glyph-name="exclamdown" horiz-adv-x="256" unicode="¡" d="M171 104v-300h-85v300l8 178h68zM118 493h22q17 0 24 -7t7 -25v-55q0 -17 -7 -24t-24 -7h-22q-17 0 -24.5 7t-7.5 24v55q0 18 7.5 25t24.5 7z"/>
<glyph glyph-name="cent" horiz-adv-x="508" unicode="¢" d="M254 168l30 364q-82 -3 -114 -42.5t-32 -140.5q0 -92 26 -132.5t90 -48.5zM442 176l9 -57q-72 -25 -159 -25l-9 -94h-45l9 95q-105 7 -149 65.5t-44 188.5q0 140 52.5 198t178.5 58h6l8 85h46l-8 -87q62 -5 105 -22l-11 -57q-53 6 -101 8l-31 -367q76 0 143 11z"/>
<glyph glyph-name="sterling" horiz-adv-x="569" unicode="£" d="M518 75v-75h-456v75q79 40 79 162q0 13 -1 26l-4 75h-80v50h77l-8 133v21q0 93 43.5 126.5t147.5 33.5q78 0 179 -10l-5 -70q-71 4 -176 4q-61 0 -82 -21.5t-21 -70.5v-14l8 -132h212l-2 -50h-207l5 -75v-22q0 -56 -14.5 -95.5t-57.5 -73.5q22 3 67 3h296z"/>
<glyph glyph-name="currency" horiz-adv-x="594" unicode="¤" d="M296 208h3q57 0 98.5 42t41.5 102t-42 102.5t-101 42.5t-101.5 -42.5t-42.5 -102.5t42 -102t99 -42h3zM488 123l-73 72q-53 -40 -119 -40q-65 0 -118 40l-72 -72l-40 40l72 72q-38 51 -38 116q0 67 40 120l-71 71l37 38l71 -72q53 40 119 40q68 0 120 -41l72 73l38 -38 l-73 -72q39 -51 39 -119q0 -65 -40 -118l74 -73z"/>
<glyph glyph-name="yen" horiz-adv-x="618" unicode="¥" d="M353 210h178v-51h-178v-159h-88v159h-174v51h174v53l-4 8h-169l-1 52h142l-197 367h91l145 -275q8 -14 20.5 -45t13.5 -33h7q20 49 33 77l144 276h92l-197 -367h146v-52h-173l-5 -8v-53z"/>
<glyph glyph-name="brokenbar" horiz-adv-x="248" unicode="¦" d="M155 -169h-62v400h62v-400zM155 381h-62v400h62v-400z"/>
<glyph glyph-name="section" horiz-adv-x="544" unicode="§" d="M78 388h62q-1 -18 -1 -33q0 -43 12 -75t58 -58l173 -98q51 -30 76 -64.5t25 -91.5q0 -34 -9.5 -58t-25 -38t-42.5 -22t-53.5 -10t-66.5 -2q-110 2 -218 12l7 67q96 -6 190 -7q29 0 43.5 0.5t33.5 3.5t28 9.5t15.5 18t6.5 33.5q0 30 -16 50.5t-48 38.5l-162 90 q-70 37 -84 80t-14 76q0 36 10 78zM336 322l-173 99q-52 30 -76.5 63.5t-24.5 90.5q0 76 47.5 102t150.5 26q124 -2 217 -12l-6 -66q-74 5 -189 5h-25q-29 0 -48.5 -2t-37.5 -15t-18 -44q0 -30 16 -50t50 -39l162 -91q69 -37 83 -80t14 -76q0 -36 -11 -79h-62q1 17 1 32 q0 44 -12.5 77t-57.5 59z"/>
<glyph glyph-name="dieresis" horiz-adv-x="411" unicode="¨" d="M281 693h28q24 0 24 -24v-55q0 -24 -24 -24h-28q-24 0 -24 24v55q0 24 24 24zM103 693h29q23 0 23 -24v-55q0 -24 -23 -24h-29q-23 0 -23 24v55q0 24 23 24z"/>
<glyph glyph-name="copyright" horiz-adv-x="836" unicode="©" d="M562 191l6 -49q-62 -15 -145 -15q-107 0 -151 49.5t-44 170.5q0 122 44 171.5t151 49.5q79 0 135 -14l-8 -48q-64 3 -128 3q-72 0 -99.5 -35t-27.5 -127t27.5 -127t99.5 -35q91 0 140 6zM418 657q-130 0 -221 -89.5t-91 -222.5t91 -222.5t221 -89.5t221 89t91 223 t-91 223t-221 89zM418 703q152 0 255.5 -101.5t103.5 -256.5t-103.5 -256.5t-255.5 -101.5q-151 0 -255 102t-104 256t104 256t255 102z"/>
<glyph glyph-name="ordfeminine" horiz-adv-x="441" unicode="ª" d="M127 385v-18q0 -46 55 -46q60 0 122 49v65l-127 -8q-50 -3 -50 -42zM86 545l-7 48q112 14 175 14q57 0 85.5 -25t28.5 -83v-227h-51l-8 61q-67 -67 -147 -67q-45 0 -71.5 22.5t-26.5 64.5v38q0 38 24.5 59.5t68.5 21.5h147v28q0 53 -63 53q-51 0 -155 -8z"/>
<glyph glyph-name="guillemotleft" horiz-adv-x="485" unicode="«" d="M431 429l-126 -178l127 -182l-45 -30l-161 202v20l160 198zM249 429l-126 -178l127 -182l-44 -30l-162 202v20l161 198z"/>
<glyph glyph-name="logicalnot" horiz-adv-x="590" unicode="¬" d="M512 330v-198h-66v133h-372v65h438z"/>
<glyph glyph-name="softhyphen" horiz-adv-x="448" unicode="­" d="M377 220h-305v65h305v-65z"/>
<glyph glyph-name="registered" horiz-adv-x="553" unicode="®" d="M217 487h68q36 1 50 11t13 36q1 28 -12.5 37.5t-50.5 9.5h-68v-94zM330 473v-2q29 -4 39 -38l30 -82h-42l-28 80q-11 27 -42 27h-70v-107h-40v259q34 3 109 3q56 0 79.5 -16t23.5 -59q0 -30 -13.5 -45.5t-45.5 -19.5zM277 287q79 0 135 56.5t56 136.5t-56 136.5 t-135 56.5t-135.5 -56.5t-56.5 -136.5t56 -136.5t136 -56.5zM277 702q92 0 157 -65t65 -157q0 -93 -65 -158t-157 -65q-93 0 -158 65t-65 158q0 92 65 157t158 65z"/>
<glyph glyph-name="macron" horiz-adv-x="400" unicode="¯" d="M339 609h-278v63h278v-63z"/>
<glyph glyph-name="degree" horiz-adv-x="363" unicode="°" d="M182 651q-32 0 -54 -21t-22 -54q0 -32 22 -54t54 -22q31 0 53 22t22 54t-22 53.5t-53 21.5zM182 703q53 0 91 -37.5t38 -89.5t-38 -90t-91 -38t-91.5 38t-38.5 90t38 89.5t92 37.5z"/>
<glyph glyph-name="plusminus" horiz-adv-x="588" unicode="±" d="M75 134h438v-64h-438v64zM513 391v-64h-187v-134h-65v134h-186v64h186v133h66v-133h186z"/>
<glyph glyph-name="twosuperior" horiz-adv-x="435" unicode="²" d="M69 716l-4 50q74 15 141 15q80 0 115 -19t35 -76q0 -62 -82 -144l-127 -124q18 2 39 2q14 0 30 -1h157v-59h-312v38q0 17 11 28l129 125q82 80 82 132q0 26 -19 33.5t-62 7.5q-67 0 -133 -8z"/>
<glyph glyph-name="threesuperior" horiz-adv-x="417" unicode="³" d="M72 722l-4 49q71 11 132 11q83 0 115 -20.5t32 -75.5q0 -94 -75 -105v-2q47 -6 66 -32t20 -72v-7q0 -60 -33.5 -88t-116.5 -28q-62 0 -148 11l4 50q59 -5 128 -5q55 0 76.5 16.5t21.5 58.5q0 32 -18.5 50t-68.5 18h-85v50h85q49 1 64.5 19.5t15.5 49.5q-1 33 -20 44.5 t-72 11.5q-78 0 -119 -4z"/>
<glyph glyph-name="acute" horiz-adv-x="314" unicode="´" d="M276 658l-192 -120l-29 39l172 146z"/>
<glyph glyph-name="paragraph" horiz-adv-x="593" unicode="¶" d="M269 -210v411q-122 11 -175.5 69t-53.5 180q0 138 70 195t236 57q90 0 151 -17v-685h-65v642q-70 4 -98 4v-856h-65z"/>
<glyph glyph-name="periodcentered" horiz-adv-x="236" unicode="·" d="M104 317h28q17 0 24.5 -7.5t7.5 -24.5v-55q0 -17 -7.5 -24t-24.5 -7h-28q-17 0 -24.5 7t-7.5 24v55q0 17 7.5 24.5t24.5 7.5z"/>
<glyph glyph-name="cedilla" horiz-adv-x="234" unicode="¸" d="M81 -83l9 40q18 2 33 2q35 0 53 -10q25 -13 25 -54q0 -65 -48 -100q-36 -26 -88 -26q-15 0 -31 2l13 45h4q39 0 63 18q26 20 26 51q1 18 -11 24.5t-48 7.5z"/>
<glyph glyph-name="onesuperior" horiz-adv-x="294" unicode="¹" d="M218 360h-67v315q0 26 3 39l-111 -29l-9 46l117 43h67v-414z"/>
<glyph glyph-name="ordmasculine" horiz-adv-x="444" unicode="º" d="M222 554q-54 0 -75 -25.5t-21 -93.5t20.5 -92.5t75.5 -24.5q54 0 74.5 24.5t20.5 92.5q0 69 -20.5 94t-74.5 25zM222 607q90 0 126.5 -38.5t36.5 -133.5q0 -94 -36.5 -132.5t-126.5 -38.5t-126.5 38.5t-36.5 132.5q0 95 36.5 133.5t126.5 38.5z"/>
<glyph glyph-name="guillemotright" horiz-adv-x="485" unicode="»" d="M440 261v-20l-161 -202l-45 30l128 182l-127 178l45 30zM259 261v-20l-161 -202l-45 30l127 182l-126 178l45 30z"/>
<glyph glyph-name="onequarter" horiz-adv-x="863" unicode="¼" d="M821 103l-48 -5v-98h-63v97h-195q-27 0 -36.5 13t-9.5 25t7 27l127 252h64l-122 -242q-4 -9 1 -15.5t16 -6.5h148v117l12 68h51v-185h48v-47zM645 690l-447 -690h-61l447 690h61zM155 276v315q0 22 4 39l-113 -29l-8 46l117 43h66v-414h-66z"/>
<glyph glyph-name="onehalf" horiz-adv-x="887" unicode="½" d="M534 356l-4 50q74 15 140 15q80 0 115 -19t35 -76q0 -62 -82 -144l-127 -124q19 2 40 2q14 0 29 -1h157v-59h-311v38q0 18 10 28l129 125q82 80 83 129q0 28 -19.5 36t-62.5 8q-67 0 -132 -8zM192 0h-62l448 690h61zM221 276h-66v315q0 22 4 39l-113 -29l-8 46l117 43h66 v-414z"/>
<glyph glyph-name="threequarters" horiz-adv-x="954" unicode="¾" d="M912 103l-51 -5v-98h-62v97h-193q-27 0 -36.5 13t-9.5 25t7 27l127 252h64l-122 -242q-4 -9 1 -15.5t17 -6.5h145v117l11 68h51v-185h51v-47zM746 690l-447 -690h-61l447 690h61zM268 495v-2q47 -6 66.5 -32t20.5 -72v-7q0 -60 -33.5 -88t-116.5 -28q-63 0 -149 11l4 50 q59 -5 129 -5q54 0 76 16.5t22 58.5q0 32 -18.5 50t-68.5 18l-86 2v45l86 3q48 1 63.5 19.5t15.5 48.5q0 33 -19.5 45t-72.5 12q-76 0 -119 -4l-4 49q66 10 133 10q83 0 115 -20.5t32 -74.5q0 -94 -76 -105z"/>
<glyph glyph-name="questiondown" horiz-adv-x="500" unicode="¿" d="M223 288h73v-6q0 -48 -16 -89.5t-40 -70t-48.5 -53.5t-42 -54t-18.5 -59v-6q0 -45 30.5 -67.5t99.5 -22.5q97 0 197 9l5 -61q-7 -1 -31 -5.5t-31 -5.5l-28 -4t-36 -3.5t-40 -1.5t-54 -1q-202 0 -202 155q0 41 18 76.5t44.5 62t53 54t45.5 67t21 86.5zM250 499h21 q18 0 25 -7t7 -24v-56q0 -17 -7 -24t-25 -7h-21q-18 0 -25 7t-7 24v56q0 17 7 24t25 7z"/>
<glyph glyph-name="Agrave" horiz-adv-x="622" unicode="À" d="M429 292l-87 274q-9 26 -17 56h-28l-17 -56l-87 -274h236zM453 216h-284l-68 -216h-91l222 666q6 24 33 24h92q27 0 33 -24l222 -666h-91zM332 728l-192 120l49 66l172 -147z"/>
<glyph glyph-name="Aacute" horiz-adv-x="622" unicode="Á" d="M429 292l-87 274q-9 26 -17 56h-28l-17 -56l-87 -274h236zM453 216h-284l-68 -216h-91l222 666q6 24 33 24h92q27 0 33 -24l222 -666h-91zM275 728l-29 39l172 147l49 -66z"/>
<glyph glyph-name="Acircumflex" horiz-adv-x="622" unicode="Â" d="M429 292l-87 274q-9 26 -17 56h-28l-17 -56l-87 -274h236zM453 216h-284l-68 -216h-91l222 666q6 24 33 24h92q27 0 33 -24l222 -666h-91zM177 732l-28 37l131 127h62l132 -127l-30 -37l-129 98h-8z"/>
<glyph glyph-name="Atilde" horiz-adv-x="622" unicode="Ã" d="M429 292l-87 274q-9 26 -17 56h-28l-17 -56l-87 -274h236zM453 216h-284l-68 -216h-91l222 666q6 24 33 24h92q27 0 33 -24l222 -666h-91zM193 765h-40q-1 12 -1 23q0 41 19 66.5t53 25.5h7q32 -3 77.5 -28t61.5 -27t21 -2q19 0 28.5 11t9.5 41h40q1 -12 1 -23 q0 -40 -18.5 -64.5t-53.5 -24.5h-7q-37 3 -83.5 28.5t-66.5 28.5q-5 1 -10 1q-20 0 -29 -12t-9 -44z"/>
<glyph glyph-name="Adieresis" horiz-adv-x="622" unicode="Ä" d="M429 292l-87 274q-9 26 -17 56h-28l-17 -56l-87 -274h236zM453 216h-284l-68 -216h-91l222 666q6 24 33 24h92q27 0 33 -24l222 -666h-91zM414 767h-28q-24 0 -24 24v55q0 24 24 24h28q24 0 24 -24v-55q0 -24 -24 -24zM237 767h-29q-23 0 -23 24v55q0 24 23 24h29 q23 0 23 -24v-55q0 -24 -23 -24z"/>
<glyph glyph-name="Aring" horiz-adv-x="622" unicode="Å" d="M429 292l-87 274q-9 26 -17 56h-28l-17 -56l-87 -274h236zM453 216h-284l-68 -216h-91l222 666q6 24 33 24h92q27 0 33 -24l222 -666h-91zM312 881q-26 0 -43 -17t-17 -45q0 -27 17 -44t43 -17q25 0 42 17t17 44t-17 44.5t-42 17.5zM312 715q-45 0 -76 30t-31 74 t31.5 74.5t75.5 30.5t75.5 -30.5t31.5 -74.5t-31.5 -74t-75.5 -30z"/>
<glyph glyph-name="AE" horiz-adv-x="913" unicode="Æ" d="M453 298v260q0 21 9.5 42t22.5 30h-8q-29 -16 -58 -63l-155 -269h189zM859 74l3 -69q-95 -6 -293 -6q-52 0 -84 33.5t-32 86.5v106h-231l-131 -225h-92l343 582q35 63 83.5 86t141.5 23q189 0 295 -6l-3 -70h-255q-31 0 -49.5 -18.5t-18.5 -50.5v-146h283v-72h-283v-187 q0 -67 68 -67h255z"/>
<glyph glyph-name="Ccedilla" horiz-adv-x="570" unicode="Ç" d="M273 -95l9 40q18 2 33 2q35 0 56.5 -11.5t21.5 -52.5q0 -65 -42 -95.5t-94 -30.5q-15 0 -31 2l13 45h4q37 0 62 19t27 50q0 18 -12 24.5t-47 7.5zM525 77l9 -66q-83 -23 -202 -23q-149 0 -210 80t-61 277t61 277t210 80q107 0 188 -20l-9 -67q-90 9 -179 9 q-101 0 -139.5 -60.5t-38.5 -218.5t38.5 -218.5t139.5 -60.5q116 0 193 11z"/>
<glyph glyph-name="Egrave" horiz-adv-x="560" unicode="È" d="M506 73l4 -68q-92 -6 -296 -6q-61 0 -96.5 32.5t-36.5 87.5v452q1 55 36.5 87.5t96.5 32.5q204 0 296 -6l-4 -69h-277q-60 0 -60 -66v-150h298v-71h-298v-189q0 -67 60 -67h277zM330 749l-191 120l48 65l173 -146z"/>
<glyph glyph-name="Eacute" horiz-adv-x="560" unicode="É" d="M506 73l4 -68q-92 -6 -296 -6q-61 0 -96.5 32.5t-36.5 87.5v452q1 55 36.5 87.5t96.5 32.5q204 0 296 -6l-4 -69h-277q-60 0 -60 -66v-150h298v-71h-298v-189q0 -67 60 -67h277zM274 749l-30 39l173 146l48 -65z"/>
<glyph glyph-name="Ecircumflex" horiz-adv-x="560" unicode="Ê" d="M506 73l4 -68q-92 -6 -296 -6q-61 0 -96.5 32.5t-36.5 87.5v452q1 55 36.5 87.5t96.5 32.5q204 0 296 -6l-4 -69h-277q-60 0 -60 -66v-150h298v-71h-298v-189q0 -67 60 -67h277zM176 753l-29 37l132 127h61l133 -127l-30 -37l-129 98h-8z"/>
<glyph glyph-name="Edieresis" horiz-adv-x="560" unicode="Ë" d="M506 73l4 -68q-92 -6 -296 -6q-61 0 -96.5 32.5t-36.5 87.5v452q1 55 36.5 87.5t96.5 32.5q204 0 296 -6l-4 -69h-277q-60 0 -60 -66v-150h298v-71h-298v-189q0 -67 60 -67h277zM413 788h-29q-24 0 -24 24v54q0 24 24 24h29q23 0 23 -24v-54q0 -24 -23 -24zM236 788h-29 q-24 0 -24 24v54q0 24 24 24h29q23 0 23 -24v-54q0 -24 -23 -24z"/>
<glyph glyph-name="Igrave" horiz-adv-x="262" unicode="Ì" d="M175 0h-88v690h88v-690zM181 767l-30 -39l-191 120l48 66z"/>
<glyph glyph-name="Iacute" horiz-adv-x="262" unicode="Í" d="M175 0h-88v690h88v-690zM287 848l-192 -120l-29 39l172 147z"/>
<glyph glyph-name="Icircumflex" horiz-adv-x="262" unicode="Î" d="M175 0h-88v690h88v-690zM294 769l-30 -37l-129 98h-8l-130 -98l-29 37l132 127h61z"/>
<glyph glyph-name="Idieresis" horiz-adv-x="262" unicode="Ï" d="M175 0h-88v690h88v-690zM205 870h29q23 0 23 -24v-55q0 -24 -23 -24h-29q-24 0 -24 24v55q0 24 24 24zM28 870h29q23 0 23 -24v-55q0 -24 -23 -24h-29q-24 0 -24 24v55q0 24 24 24z"/>
<glyph glyph-name="Eth" horiz-adv-x="669" unicode="Ð" d="M179 342v-272q92 -2 158 -2q100 0 138.5 60t38.5 217t-38.5 217.5t-138.5 60.5q-64 0 -158 -2v-230h152v-49h-152zM91 391v299q130 9 246 9q149 0 209 -77.5t60 -276.5t-60 -276.5t-209 -77.5q-115 0 -246 9v342h-69v49h69z"/>
<glyph glyph-name="Ntilde" horiz-adv-x="705" unicode="Ñ" d="M618 690v-655q0 -35 -34 -35h-86q-27 0 -39 28l-233 489q-34 74 -39 91h-16q4 -40 4 -91v-517h-88v655q0 35 35 35h83q27 0 39 -28l226 -477q25 -49 47 -100h17q-3 54 -3 105v500h87zM242 765h-39q-1 12 -1 23q0 41 19 66.5t53 25.5h7q32 -3 77 -28t72 -28q6 -1 10 -1 q20 0 29.5 11t9.5 41h39q2 -14 2 -25q0 -38 -18.5 -62.5t-54.5 -24.5h-7q-37 3 -83 28.5t-67 28.5q-5 1 -10 1q-19 0 -28.5 -12t-9.5 -44z"/>
<glyph glyph-name="Ograve" d="M334 624q-102 0 -141 -60.5t-39 -218.5t39 -218.5t141 -60.5t141 60.5t39 218.5t-39 218.5t-141 60.5zM334 703q152 0 212 -78.5t60 -279.5t-60 -279.5t-212 -78.5t-212.5 78.5t-60.5 279.5t60.5 279.5t212.5 78.5zM383 767l-29 -39l-192 120l49 66z" unicode="Ò"/>
<glyph glyph-name="Oacute" d="M334 624q-102 0 -141 -60.5t-39 -218.5t39 -218.5t141 -60.5t141 60.5t39 218.5t-39 218.5t-141 60.5zM334 703q152 0 212 -78.5t60 -279.5t-60 -279.5t-212 -78.5t-212.5 78.5t-60.5 279.5t60.5 279.5t212.5 78.5zM489 848l-192 -120l-29 39l172 147z" unicode="Ó"/>
<glyph glyph-name="Ocircumflex" d="M334 624q-102 0 -141 -60.5t-39 -218.5t39 -218.5t141 -60.5t141 60.5t39 218.5t-39 218.5t-141 60.5zM334 703q152 0 212 -78.5t60 -279.5t-60 -279.5t-212 -78.5t-212.5 78.5t-60.5 279.5t60.5 279.5t212.5 78.5zM496 769l-30 -37l-129 98h-8l-130 -98l-28 37l131 127 h62z" unicode="Ô"/>
<glyph glyph-name="Otilde" d="M334 624q-102 0 -141 -60.5t-39 -218.5t39 -218.5t141 -60.5t141 60.5t39 218.5t-39 218.5t-141 60.5zM334 703q152 0 212 -78.5t60 -279.5t-60 -279.5t-212 -78.5t-212.5 78.5t-60.5 279.5t60.5 279.5t212.5 78.5zM215 765h-40q-1 12 -1 23q0 41 19 66.5t53 25.5h7 q32 -3 77.5 -28t61.5 -27t21 -2q19 0 28.5 11t9.5 41h40q1 -12 1 -23q0 -40 -18.5 -64.5t-53.5 -24.5h-7q-37 3 -83.5 28.5t-66.5 28.5q-5 1 -10 1q-20 0 -29 -12t-9 -44z" unicode="Õ"/>
<glyph glyph-name="Odieresis" d="M334 624q-102 0 -141 -60.5t-39 -218.5t39 -218.5t141 -60.5t141 60.5t39 218.5t-39 218.5t-141 60.5zM334 703q152 0 212 -78.5t60 -279.5t-60 -279.5t-212 -78.5t-212.5 78.5t-60.5 279.5t60.5 279.5t212.5 78.5zM408 870h28q24 0 24 -24v-55q0 -24 -24 -24h-28 q-24 0 -24 24v55q0 24 24 24zM230 870h29q23 0 23 -24v-55q0 -24 -23 -24h-29q-23 0 -23 24v55q0 24 23 24z" unicode="Ö"/>
<glyph glyph-name="multiply" horiz-adv-x="484" unicode="×" d="M46 155l356 320l42 -50l-356 -321z"/>
<glyph glyph-name="Oslash" d="M466 576l-230 -490q37 -20 98 -20q102 0 141 60.5t39 218.5q0 173 -48 231zM198 120l228 487q-34 17 -92 17q-102 0 -141 -60.5t-39 -218.5q0 -166 44 -225zM539 731l-33 -69q53 -36 76.5 -112t23.5 -205q0 -201 -60 -279.5t-212 -78.5q-84 0 -134 21l-31 -66l-45 20 l32 70q-50 37 -72.5 112t-22.5 201q0 201 60.5 279.5t212.5 78.5q77 0 128 -19l31 66z" unicode="Ø"/>
<glyph glyph-name="Ugrave" horiz-adv-x="666" unicode="Ù" d="M584 690v-426q0 -151 -56 -214t-191 -63q-140 0 -197.5 63t-57.5 214v426h88v-426q0 -111 36 -154.5t127 -43.5q90 0 126.5 43.5t36.5 154.5v426h88zM384 767l-29 -39l-192 120l49 66z"/>
<glyph glyph-name="Uacute" horiz-adv-x="666" unicode="Ú" d="M584 690v-426q0 -151 -56 -214t-191 -63q-140 0 -197.5 63t-57.5 214v426h88v-426q0 -111 36 -154.5t127 -43.5q90 0 126.5 43.5t36.5 154.5v426h88zM490 848l-192 -120l-29 39l172 147z"/>
<glyph glyph-name="Ucircumflex" horiz-adv-x="666" unicode="Û" d="M584 690v-426q0 -151 -56 -214t-191 -63q-140 0 -197.5 63t-57.5 214v426h88v-426q0 -111 36 -154.5t127 -43.5q90 0 126.5 43.5t36.5 154.5v426h88zM497 769l-30 -37l-129 98h-8l-130 -98l-29 37l132 127h62z"/>
<glyph glyph-name="Udieresis" horiz-adv-x="666" unicode="Ü" d="M584 690v-426q0 -151 -56 -214t-191 -63q-140 0 -197.5 63t-57.5 214v426h88v-426q0 -111 36 -154.5t127 -43.5q90 0 126.5 43.5t36.5 154.5v426h88zM409 870h28q24 0 24 -24v-55q0 -24 -24 -24h-28q-24 0 -24 24v55q0 24 24 24zM231 870h29q23 0 23 -24v-55 q0 -24 -23 -24h-29q-23 0 -23 24v55q0 24 23 24z"/>
<glyph glyph-name="Yacute" horiz-adv-x="569" unicode="Ý" d="M328 242v-242h-88v243l-229 447h94l145 -291q12 -24 31 -78h7q16 44 31 77l145 292h93zM248 728l-29 39l172 147l49 -66z"/>
<glyph glyph-name="Thorn" horiz-adv-x="592" unicode="Þ" d="M175 207h148q77 1 105.5 29.5t28.5 112.5q0 85 -28.5 114t-105.5 29q-109 0 -148 -1v-284zM175 690v-125q41 2 150 2q125 0 173 -45.5t48 -172.5t-46.5 -172.5t-165.5 -45.5q-82 0 -159 9v-140h-88v559v131h88z"/>
<glyph glyph-name="germandbls" horiz-adv-x="675" unicode="ß" d="M446 302l104 -46q48 -22 68 -49.5t20 -80.5q0 -81 -41.5 -109t-135.5 -28q-82 0 -160 11l5 64q64 -5 139 -5q64 1 87 13.5t23 57.5q0 31 -14.5 45t-52.5 31l-106 47q-82 38 -82 112q0 16 2.5 29t10.5 24.5t13.5 18.5t20.5 17t21.5 14t27.5 15t27 15q37 21 50.5 39 t13.5 49q0 34 -30.5 49.5t-111.5 15.5q-84 0 -114 -23.5t-30 -93.5v-534h-85v419h-88v66l88 1v57q0 57 14.5 93.5t46 54.5t69 24t95.5 6q123 0 174.5 -29t51.5 -103q0 -43 -18 -72t-69 -59q-13 -8 -33.5 -18.5t-29 -16t-19 -14t-14 -18.5t-3.5 -24q0 -24 14.5 -36.5 t50.5 -28.5z"/>
<glyph glyph-name="agrave" horiz-adv-x="549" unicode="à" d="M138 168v-31q0 -38 18 -55.5t58 -17.5h4q37 0 84 18.5t87 54.5v98h-188q-34 -1 -48.5 -18t-14.5 -49zM81 414l-8 63q134 22 235 22q85 0 126 -35.5t41 -120.5v-343h-67l-10 80q-35 -35 -87.5 -62t-113.5 -27q-67 0 -106.5 35.5t-39.5 100.5v53q0 57 35.5 88.5t99.5 31.5 h203v43q0 46 -21 65t-78 19q-72 0 -209 -13zM290 548l-192 121l48 65l173 -147z"/>
<glyph glyph-name="aacute" horiz-adv-x="549" unicode="á" d="M138 168v-31q0 -38 18 -55.5t58 -17.5h4q37 0 84 18.5t87 54.5v98h-188q-34 -1 -48.5 -18t-14.5 -49zM81 414l-8 63q134 22 235 22q85 0 126 -35.5t41 -120.5v-343h-67l-10 80q-35 -35 -87.5 -62t-113.5 -27q-67 0 -106.5 35.5t-39.5 100.5v53q0 57 35.5 88.5t99.5 31.5 h203v43q0 46 -21 65t-78 19q-72 0 -209 -13zM233 548l-29 39l172 147l49 -65z"/>
<glyph glyph-name="acircumflex" horiz-adv-x="549" unicode="â" d="M138 168v-31q0 -38 18 -55.5t58 -17.5h4q37 0 84 18.5t87 54.5v98h-188q-34 -1 -48.5 -18t-14.5 -49zM81 414l-8 63q134 22 235 22q85 0 126 -35.5t41 -120.5v-343h-67l-10 80q-35 -35 -87.5 -62t-113.5 -27q-67 0 -106.5 35.5t-39.5 100.5v53q0 57 35.5 88.5t99.5 31.5 h203v43q0 46 -21 65t-78 19q-72 0 -209 -13zM135 552l-29 37l132 127h62l132 -127l-30 -37l-129 98h-8z"/>
<glyph glyph-name="atilde" horiz-adv-x="549" unicode="ã" d="M138 168v-31q0 -38 18 -55.5t58 -17.5h4q37 0 84 18.5t87 54.5v98h-188q-34 -1 -48.5 -18t-14.5 -49zM81 414l-8 63q134 22 235 22q85 0 126 -35.5t41 -120.5v-343h-67l-10 80q-35 -35 -87.5 -62t-113.5 -27q-67 0 -106.5 35.5t-39.5 100.5v53q0 57 35.5 88.5t99.5 31.5 h203v43q0 46 -21 65t-78 19q-72 0 -209 -13zM151 586h-40q-1 12 -1 23q0 41 19 66t53 25h7q32 -3 77.5 -28t71.5 -28q6 -1 10 -1q20 0 29.5 11t9.5 41h40q1 -12 1 -22q0 -39 -18.5 -64.5t-53.5 -25.5h-7q-37 3 -83.5 28.5t-67.5 28.5q-5 1 -10 1q-19 0 -28 -12t-9 -43z"/>
<glyph glyph-name="adieresis" horiz-adv-x="549" unicode="ä" d="M138 168v-31q0 -38 18 -55.5t58 -17.5h4q37 0 84 18.5t87 54.5v98h-188q-34 -1 -48.5 -18t-14.5 -49zM81 414l-8 63q134 22 235 22q85 0 126 -35.5t41 -120.5v-343h-67l-10 80q-35 -35 -87.5 -62t-113.5 -27q-67 0 -106.5 35.5t-39.5 100.5v53q0 57 35.5 88.5t99.5 31.5 h203v43q0 46 -21 65t-78 19q-72 0 -209 -13zM372 587h-29q-23 0 -23 24v55q0 24 23 24h29q24 0 24 -24v-55q0 -24 -24 -24zM195 587h-29q-23 0 -23 24v55q0 24 23 24h29q23 0 23 -24v-55q0 -24 -23 -24z"/>
<glyph glyph-name="aring" horiz-adv-x="549" unicode="å" d="M138 168v-31q0 -38 18 -55.5t58 -17.5h4q37 0 84 18.5t87 54.5v98h-188q-34 -1 -48.5 -18t-14.5 -49zM81 414l-8 63q134 22 235 22q85 0 126 -35.5t41 -120.5v-343h-67l-10 80q-35 -35 -87.5 -62t-113.5 -27q-67 0 -106.5 35.5t-39.5 100.5v53q0 57 35.5 88.5t99.5 31.5 h203v43q0 46 -21 65t-78 19q-72 0 -209 -13zM269 701q-26 0 -42.5 -17t-16.5 -45q0 -27 17 -43.5t42 -16.5q26 0 43 16.5t17 43.5t-17 44.5t-43 17.5zM269 535q-45 0 -76 30t-31 74q0 45 31 75.5t76 30.5q44 0 75.5 -30.5t31.5 -75.5q0 -44 -31 -74t-76 -30z"/>
<glyph glyph-name="ae" horiz-adv-x="871" unicode="æ" d="M138 168v-31q0 -38 18 -55.5t58 -17.5h4q40 0 89 20t91 58q-9 40 -9 93h-188q-34 -1 -48.5 -18t-14.5 -49zM477 268h196q65 0 63 72q0 46 -27.5 66.5t-92.5 20.5q-76 0 -106.5 -34t-32.5 -125zM695 202h-216q6 -84 40 -113t113 -29q83 0 170 12l8 -57q-64 -27 -189 -27 q-84 0 -134 24.5t-74 80.5q-35 -39 -92 -70.5t-124 -31.5t-106.5 35.5t-39.5 100.5v53q0 57 35.5 88.5t99.5 31.5h203v43q0 46 -21 65t-78 19q-72 0 -209 -13l-8 63q134 22 235 22q103 0 139 -50q50 50 165 50q109 0 159 -39.5t51 -119.5q0 -138 -127 -138z"/>
<glyph glyph-name="ccedilla" horiz-adv-x="489" unicode="ç" d="M226 -95l9 40q18 2 33 2q35 0 57 -11.5t22 -52.5q0 -65 -42.5 -95.5t-94.5 -30.5q-15 0 -31 2l14 45h4q37 0 62 19t26 50q1 18 -11 24.5t-48 7.5zM443 70l9 -57q-72 -25 -167 -25q-126 0 -178.5 57.5t-52.5 198.5t52.5 198t179.5 57q96 0 157 -23l-11 -55q-66 6 -132 6 q-88 0 -122 -39t-34 -144q0 -106 34 -145t122 -39q80 0 143 10z"/>
<glyph glyph-name="egrave" horiz-adv-x="537" unicode="è" d="M143 268h206q53 0 53 72q-1 47 -28 67t-92 20q-77 0 -107 -33.5t-32 -125.5zM371 202h-227q7 -84 41 -113t113 -29q83 0 169 12l9 -57q-65 -27 -189 -27q-126 0 -179.5 58.5t-53.5 198.5q0 141 52 197.5t172 56.5q109 0 159 -39.5t50 -119.5q2 -138 -116 -138zM300 548 l-191 121l48 65l173 -147z"/>
<glyph glyph-name="eacute" horiz-adv-x="537" unicode="é" d="M143 268h206q53 0 53 72q-1 47 -28 67t-92 20q-77 0 -107 -33.5t-32 -125.5zM371 202h-227q7 -84 41 -113t113 -29q83 0 169 12l9 -57q-65 -27 -189 -27q-126 0 -179.5 58.5t-53.5 198.5q0 141 52 197.5t172 56.5q109 0 159 -39.5t50 -119.5q2 -138 -116 -138zM244 548 l-30 39l173 147l48 -65z"/>
<glyph glyph-name="ecircumflex" horiz-adv-x="537" unicode="ê" d="M143 268h206q53 0 53 72q-1 47 -28 67t-92 20q-77 0 -107 -33.5t-32 -125.5zM371 202h-227q7 -84 41 -113t113 -29q83 0 169 12l9 -57q-65 -27 -189 -27q-126 0 -179.5 58.5t-53.5 198.5q0 141 52 197.5t172 56.5q109 0 159 -39.5t50 -119.5q2 -138 -116 -138zM146 552 l-29 37l132 127h61l133 -127l-30 -37l-130 98h-8z"/>
<glyph glyph-name="edieresis" horiz-adv-x="537" unicode="ë" d="M143 268h206q53 0 53 72q-1 47 -28 67t-92 20q-77 0 -107 -33.5t-32 -125.5zM371 202h-227q7 -84 41 -113t113 -29q83 0 169 12l9 -57q-65 -27 -189 -27q-126 0 -179.5 58.5t-53.5 198.5q0 141 52 197.5t172 56.5q109 0 159 -39.5t50 -119.5q2 -138 -116 -138zM382 587 h-28q-24 0 -24 24v55q0 24 24 24h28q24 0 24 -24v-55q0 -24 -24 -24zM205 587h-29q-23 0 -23 24v55q0 24 23 24h29q24 0 24 -24v-55q0 -24 -24 -24z"/>
<glyph glyph-name="igrave" horiz-adv-x="249" unicode="ì" d="M167 0h-85v487h85v-487zM175 587l-30 -39l-191 121l48 65z"/>
<glyph glyph-name="iacute" horiz-adv-x="249" unicode="í" d="M167 0h-85v487h85v-487zM281 669l-192 -121l-29 39l172 147z"/>
<glyph glyph-name="icircumflex" horiz-adv-x="249" unicode="î" d="M167 0h-85v487h85v-487zM288 589l-30 -37l-129 98h-8l-130 -98l-29 37l132 127h61z"/>
<glyph glyph-name="idieresis" horiz-adv-x="249" unicode="ï" d="M167 0h-85v487h85v-487zM199 690h29q23 0 23 -24v-55q0 -24 -23 -24h-29q-24 0 -24 24v55q0 24 24 24zM22 690h29q23 0 23 -24v-55q0 -24 -23 -24h-29q-24 0 -24 24v55q0 24 24 24z"/>
<glyph glyph-name="eth" horiz-adv-x="559" unicode="ð" d="M276 59q42 0 68.5 14t40 46t18 69.5t4.5 98.5q0 24 -2 66q-62 24 -132 24t-99 -39.5t-29 -118.5q0 -87 31 -123.5t100 -36.5zM443 673l-67 -52q119 -104 119 -338q0 -71 -9 -121.5t-32.5 -92t-68 -62t-110.5 -20.5q-113 0 -166.5 55.5t-53.5 176.5q0 114 47.5 171.5 t157.5 57.5q79 0 137 -36q-21 110 -80 164l-78 -60l-31 38l67 52q-55 30 -137 30h-19l10 62h21q107 0 185 -46l78 60z"/>
<glyph glyph-name="ntilde" horiz-adv-x="581" unicode="ñ" d="M150 487l6 -77q118 89 218 89q132 0 132 -134v-365h-85v341q0 48 -16 67t-54 19q-40 0 -80.5 -18t-107.5 -59v-350h-85v487h72zM179 586h-40q-1 12 -1 23q0 41 19 66t53 25h7q32 -3 77.5 -28t61.5 -27t21 -2q19 0 28.5 11t9.5 41h40q1 -12 1 -22q0 -39 -18.5 -64.5 t-53.5 -25.5h-7q-37 3 -83.5 28.5t-66.5 28.5q-5 1 -10 1q-19 0 -28.5 -12t-9.5 -43z"/>
<glyph glyph-name="ograve" horiz-adv-x="568" unicode="ò" d="M284 427q-80 0 -110 -39t-30 -145t30 -145t110 -39t110.5 39t30.5 145t-30.5 145t-110.5 39zM284 499q126 0 177.5 -58t51.5 -198t-51.5 -198t-177.5 -58q-125 0 -177 58t-52 198t52 198t177 58zM333 587l-29 -39l-192 121l49 65z"/>
<glyph glyph-name="oacute" horiz-adv-x="568" unicode="ó" d="M284 427q-80 0 -110 -39t-30 -145t30 -145t110 -39t110.5 39t30.5 145t-30.5 145t-110.5 39zM284 499q126 0 177.5 -58t51.5 -198t-51.5 -198t-177.5 -58q-125 0 -177 58t-52 198t52 198t177 58zM439 669l-192 -121l-29 39l172 147z"/>
<glyph glyph-name="ocircumflex" horiz-adv-x="568" unicode="ô" d="M284 427q-80 0 -110 -39t-30 -145t30 -145t110 -39t110.5 39t30.5 145t-30.5 145t-110.5 39zM284 499q126 0 177.5 -58t51.5 -198t-51.5 -198t-177.5 -58q-125 0 -177 58t-52 198t52 198t177 58zM446 589l-30 -37l-129 98h-8l-130 -98l-29 37l132 127h62z"/>
<glyph glyph-name="otilde" horiz-adv-x="568" unicode="õ" d="M284 427q-80 0 -110 -39t-30 -145t30 -145t110 -39t110.5 39t30.5 145t-30.5 145t-110.5 39zM284 499q126 0 177.5 -58t51.5 -198t-51.5 -198t-177.5 -58q-125 0 -177 58t-52 198t52 198t177 58zM165 586h-40q-1 12 -1 23q0 41 19 66t53 25h7q32 -3 77.5 -28t61.5 -27 t21 -2q19 0 28.5 11t9.5 41h40q1 -12 1 -22q0 -39 -18.5 -64.5t-53.5 -25.5h-7q-37 3 -83.5 28.5t-66.5 28.5q-5 1 -10 1q-19 0 -28.5 -12t-9.5 -43z"/>
<glyph glyph-name="odieresis" horiz-adv-x="568" unicode="ö" d="M284 427q-80 0 -110 -39t-30 -145t30 -145t110 -39t110.5 39t30.5 145t-30.5 145t-110.5 39zM284 499q126 0 177.5 -58t51.5 -198t-51.5 -198t-177.5 -58q-125 0 -177 58t-52 198t52 198t177 58zM358 690h28q24 0 24 -24v-55q0 -24 -24 -24h-28q-24 0 -24 24v55 q0 24 24 24zM180 690h29q23 0 23 -24v-55q0 -24 -23 -24h-29q-23 0 -23 24v55q0 24 23 24z"/>
<glyph glyph-name="divide" horiz-adv-x="571" unicode="÷" d="M273 176h22q17 0 24.5 -7t7.5 -25v-48q0 -18 -7.5 -25t-24.5 -7h-22q-18 0 -24.5 7t-6.5 25v48q0 18 6.5 25t24.5 7zM504 263h-438v64h438v-64zM273 525h22q17 0 24.5 -7.5t7.5 -24.5v-49q0 -17 -7.5 -24t-24.5 -7h-22q-18 0 -24.5 7t-6.5 24v49q0 18 6.5 25t24.5 7z"/>
<glyph glyph-name="oslash" horiz-adv-x="568" unicode="ø" d="M380 403l-157 -337q24 -7 61 -7q80 0 110.5 39t30.5 145q0 125 -45 160zM184 87l156 335q-20 5 -56 5q-80 0 -110 -39t-30 -145q0 -120 40 -156zM444 541l-30 -65q53 -24 76 -80t23 -153q0 -140 -51.5 -198t-177.5 -58q-56 0 -93 10l-34 -72l-39 19l32 68 q-50 26 -72.5 81.5t-22.5 149.5q0 140 52 198t177 58q55 0 88 -8l33 69z"/>
<glyph glyph-name="ugrave" horiz-adv-x="570" unicode="ù" d="M492 487v-487h-68l-6 70q-110 -83 -210 -83q-133 0 -133 134v366h85v-342q-1 -46 17 -65t60 -19q37 0 75 16.5t95 53.5v356h85zM308 552l-192 120l49 65l172 -146z"/>
<glyph glyph-name="uacute" horiz-adv-x="570" unicode="ú" d="M492 487v-487h-68l-6 70q-110 -83 -210 -83q-133 0 -133 134v366h85v-342q-1 -46 17 -65t60 -19q37 0 75 16.5t95 53.5v356h85zM251 552l-29 39l172 146l49 -65z"/>
<glyph glyph-name="ucircumflex" horiz-adv-x="570" unicode="û" d="M492 487v-487h-68l-6 70q-110 -83 -210 -83q-133 0 -133 134v366h85v-342q-1 -46 17 -65t60 -19q37 0 75 16.5t95 53.5v356h85zM153 556l-29 37l132 127h62l132 -127l-30 -37l-129 98h-8z"/>
<glyph glyph-name="udieresis" horiz-adv-x="570" unicode="ü" d="M492 487v-487h-68l-6 70q-110 -83 -210 -83q-133 0 -133 134v366h85v-342q-1 -46 17 -65t60 -19q37 0 75 16.5t95 53.5v356h85zM390 591h-28q-24 0 -24 24v55q0 24 24 24h28q24 0 24 -24v-55q0 -24 -24 -24zM213 591h-29q-23 0 -23 24v55q0 24 23 24h29q23 0 23 -24v-55 q0 -24 -23 -24z"/>
<glyph glyph-name="yacute" horiz-adv-x="529" unicode="ý" d="M510 487l-195 -514q-64 -172 -213 -179l-8 56q57 18 89.5 49.5t52.5 79.5l8 21h-19q-24 0 -30 22l-177 465h91l129 -363q14 -41 18 -59h14q8 20 21 59l127 363h92zM231 548l-30 39l173 147l48 -65z"/>
<glyph glyph-name="thorn" horiz-adv-x="574" unicode="þ" d="M163 359v-265q91 -36 149 -36q65 0 91 39.5t26 143.5t-26 144.5t-88 40.5q-63 0 -152 -67zM163 700v-170q0 -66 -3 -100q87 69 182 69q94 0 134.5 -61t40.5 -198q0 -139 -41.5 -196t-136.5 -57q-93 0 -178 44q2 -31 2 -91v-141h-85v901h85z"/>
<glyph glyph-name="OE" horiz-adv-x="913" unicode="Œ" d="M447 129v432q0 24 8 48q-60 15 -121 15q-102 0 -141 -60t-39 -219q0 -158 39 -218.5t141 -60.5q69 0 120 16q-7 20 -7 47zM859 73l3 -68q-92 -6 -296 -6q-40 0 -69 21q-75 -33 -163 -33q-152 0 -212.5 78.5t-60.5 279.5t60.5 279.5t212.5 78.5q90 0 168 -32q31 20 71 20 q199 0 289 -6l-3 -69h-257q-67 0 -67 -66v-150h284v-72h-284v-188q0 -35 16 -51t51 -16h257z"/>
<glyph glyph-name="oe" horiz-adv-x="907" unicode="œ" d="M284 59q76 0 107 35t34 127l-1 26v22q-3 90 -33.5 124t-106.5 34q-80 0 -110 -39t-30 -145t30 -145t110 -39zM513 269h188q41 0 56 17t15 54v10q-4 77 -127 77q-72 0 -101 -34.5t-31 -123.5zM706 206h-192q6 -86 40.5 -116t114.5 -30q82 0 168 12l8 -57q-64 -27 -189 -27 q-135 0 -186 67q-51 -68 -186 -68q-125 0 -177 58t-52 198t52 198t177 58q133 0 184 -65q48 65 175 65q213 0 215 -150q0 -81 -34.5 -112t-117.5 -31z"/>
<glyph glyph-name="Scaron" horiz-adv-x="561" unicode="Š" d="M334 292l-143 36q-73 18 -104.5 64.5t-31.5 127.5q0 60 12.5 96.5t43 55t68 24.5t100.5 6q122 -2 205 -20l-6 -64q-97 5 -195 5q-44 0 -65 -2t-41 -12t-26.5 -31.5t-6.5 -59.5q0 -55 19.5 -78t67.5 -35l140 -35q77 -19 108 -65t31 -129q0 -114 -51.5 -151t-179.5 -37 q-109 0 -214 19l6 65q144 -5 196 -5h15q82 0 110.5 21t28.5 90q0 57 -19.5 79.5t-67.5 34.5zM443 871l-144 -127h-39l-143 127l29 37l129 -87h8l130 87z"/>
<glyph glyph-name="scaron" horiz-adv-x="508" unicode="š" d="M300 197l-140 32q-60 14 -85 45t-25 91q0 81 41 107.5t135 26.5h14q117 -2 205 -15l-7 -62q-152 5 -185 5h-13q-63 0 -85 -9.5t-22 -52.5q0 -35 15.5 -48t55.5 -22l142 -32q60 -15 86.5 -44.5t26.5 -89.5q0 -85 -47 -112.5t-161 -27.5q-102 0 -191 14l6 62q71 -4 140 -4 h28q85 0 114 13t29 55q0 33 -17.5 45.5t-59.5 22.5zM423 691l-144 -127h-40l-143 127l29 37l130 -87h8l129 87z"/>
<glyph glyph-name="Ydieresis" horiz-adv-x="569" unicode="Ÿ" d="M328 242v-242h-88v243l-229 447h94l145 -291q12 -24 31 -78h7q16 44 31 77l145 292h93zM387 767h-29q-23 0 -23 24v55q0 24 23 24h29q24 0 24 -24v-55q0 -24 -24 -24zM210 767h-29q-23 0 -23 24v55q0 24 23 24h29q23 0 23 -24v-55q0 -24 -23 -24z"/>
<glyph glyph-name="circumflex" horiz-adv-x="420" unicode="ˆ" d="M374 586l-30 -37l-129 97h-8l-130 -97l-29 37l132 127h61z"/>
<glyph glyph-name="tilde" horiz-adv-x="420" unicode="˜" d="M92 585h-40q-1 12 -1 23q-1 40 17 64q20 27 55 27h7q32 -3 77 -27.5t72 -27.5q7 -1 13 -1q18 0 26 9q10 12 10 42h40q1 -12 1 -22q0 -39 -17 -63q-20 -27 -55 -27h-7q-37 3 -83.5 28.5t-67.5 28.5q-5 1 -10 1q-19 0 -27 -11q-10 -13 -10 -44z"/>
<glyph glyph-name="Delta" horiz-adv-x="626" unicode="Δ" d="M498 72l-162 455q-4 11 -22 78q-20 -67 -24 -79l-164 -454h372zM601 37v-37h-576v37l244 653h88z"/>
<glyph glyph-name="Omega" horiz-adv-x="719" unicode="Ω" d="M52 77h104q38 0 66 -6q-78 57 -111 124.5t-33 170.5v6q0 168 66 249.5t216 81.5q147 0 214 -82t67 -249q0 -110 -33.5 -177t-111.5 -124q36 6 66 6h105v-77h-252v74q75 52 104.5 117t30.5 170q-1 140 -45 202t-146 62q-104 0 -147 -61.5t-43 -204.5q0 -108 30 -168.5 t104 -116.5v-74h-251v77z"/>
<glyph glyph-name="mu" horiz-adv-x="594" unicode="μ" d="M505 487v-487h-66l-8 75q-104 -88 -196 -88q-45 0 -80 19q6 -32 6 -66v-141h-75v688h85v-342q-1 -39 20 -58t64 -19q62 0 165 61v358h85z"/>
<glyph glyph-name="pi" horiz-adv-x="643" unicode="π" d="M616 418h-95v-418h-85v418h-230v-418h-84v418h-95v69h589v-69z"/>
<glyph glyph-name="uni0401" horiz-adv-x="560" unicode="Ё" d="M505 73l4 -68q-92 -6 -295 -6q-62 0 -97.5 32.5t-35.5 87.5v452q0 55 36 87.5t97 32.5q203 0 295 -6l-4 -69h-277q-31 0 -45 -16t-14 -50v-150h297v-71h-297v-189q0 -35 14 -51t45 -16h277zM412 788h-28q-24 0 -24 24v54q0 24 24 24h28q24 0 24 -24v-54q0 -24 -24 -24z M235 788h-29q-23 0 -23 24v54q0 24 23 24h29q23 0 23 -24v-54q0 -24 -23 -24z"/>
<glyph glyph-name="uni0402" horiz-adv-x="752" unicode="Ђ" d="M334 612v-228q95 58 203 58q81 0 126 -45t45 -165q0 -130 -63.5 -183t-172.5 -53h-20l-8 64q94 6 135.5 40t41.5 124q0 87 -25.5 114.5t-86.5 27.5q-81 0 -175 -52v-314h-88v612h-222v78h533v-78h-223z"/>
<glyph glyph-name="uni0403" horiz-adv-x="518" unicode="Ѓ" d="M85 0v561q0 57 35.5 93.5t90.5 36.5q196 0 286 -7l-4 -68h-253q-36 0 -52 -16.5t-16 -54.5v-545h-87zM450 848l-191 -120l-30 39l173 147z"/>
<glyph glyph-name="uni0404" horiz-adv-x="577" unicode="Є" d="M526 78l10 -67q-82 -23 -197 -23q-154 0 -216 80t-62 277t62 277t216 80q109 0 190 -20l-9 -68q-77 9 -182 9q-96 0 -137.5 -49.5t-47.5 -173.5h295v-69h-296q1 -148 42 -206t144 -58q112 0 188 11z"/>
<glyph glyph-name="uni0405" horiz-adv-x="561" unicode="Ѕ" d="M334 292l-143 36q-73 18 -104.5 64.5t-31.5 127.5q0 60 12.5 96.5t43 55t68 24.5t100.5 6q122 -2 205 -20l-6 -64q-97 5 -195 5q-44 0 -65 -2t-41 -12t-26.5 -31.5t-6.5 -59.5q0 -55 19.5 -78t67.5 -35l140 -35q77 -19 108 -65t31 -129q0 -114 -51.5 -151t-179.5 -37 q-109 0 -214 19l6 65q144 -5 196 -5h15q82 0 110.5 21t28.5 90q0 57 -19.5 79.5t-67.5 34.5z"/>
<glyph glyph-name="uni0406" horiz-adv-x="262" unicode="І" d="M175 0h-88v690h88v-690z"/>
<glyph glyph-name="uni0407" horiz-adv-x="262" unicode="Ї" d="M175 0h-88v690h88v-690zM205 869h29q23 0 23 -24v-55q0 -24 -23 -24h-29q-24 0 -24 24v55q0 24 24 24zM28 869h29q23 0 23 -24v-55q0 -24 -23 -24h-29q-24 0 -24 24v55q0 24 24 24z"/>
<glyph glyph-name="uni0408" horiz-adv-x="340" unicode="Ј" d="M256 690v-545q0 -76 -34.5 -115t-99.5 -39q-56 0 -92 13l10 62h50q78 0 78 76v548h88z"/>
<glyph glyph-name="uni0409" horiz-adv-x="970" unicode="Љ" d="M555 338v-268q38 -1 142 -1q82 0 110 26.5t28 107.5q0 77 -27.5 106t-110.5 29h-142zM555 412h142q128 0 177.5 -46.5t49.5 -164.5q0 -120 -48 -164.5t-166 -44.5q-155 0 -242 8v4v614h-130q-33 0 -48 -17.5t-18 -52.5q-18 -201 -30 -277t-41 -141t-69 -96t-103 -35 l-7 60q58 24 96 96q21 41 33.5 95.5t17.5 101t14 159.5q3 33 4 50q7 129 143 129h225v-278z"/>
<glyph glyph-name="uni040A" horiz-adv-x="979" unicode="Њ" d="M563 338v-268q38 -1 143 -1q82 0 110 26t28 106q0 78 -28 107.5t-110 29.5h-143zM563 410h143q127 0 176.5 -46t49.5 -164q0 -120 -47.5 -164t-165.5 -44q-156 0 -243 8v338h-301v-338h-88v690h88v-280h301v280h87v-280z"/>
<glyph glyph-name="uni040B" horiz-adv-x="776" unicode="Ћ" d="M334 612v-229q112 59 228 59q80 0 119 -38.5t39 -117.5v-286h-88v269q0 53 -22.5 74.5t-77.5 21.5q-94 0 -198 -54v-311h-88v612h-222v78h533v-78h-223z"/>
<glyph glyph-name="uni040C" horiz-adv-x="600" unicode="Ќ" d="M325 362v-4q19 -2 36.5 -8t31.5 -12.5t28 -21.5t23.5 -26t22 -35t19.5 -38t20 -46.5t19.5 -50.5t21 -58.5t22.5 -61.5h-93l-15 42q-18 50 -26.5 73.5t-23.5 60.5t-25.5 53.5t-27 39t-32.5 32t-37 16.5t-46 7h-75q6 -38 6 -73v-251h-87v690h87v-216q0 -40 -6 -79h75 q34 0 62 16t46 34.5t40 65t32 72.5t33 93q3 9 5 14h90q-58 -165 -83 -213q-53 -100 -132 -113q-5 -1 -11 -2zM267 728l-29 39l172 147l49 -66z"/>
<glyph glyph-name="uni040D" horiz-adv-x="691" unicode="Ѝ" d="M604 0h-85v503q0 47 5 79h-5q-13 -34 -36 -75l-306 -507h-90v690h85v-498q0 -37 -5 -82h4q15 33 39 75l303 505h91v-690zM398 767l-29 -39l-192 120l49 66z"/>
<glyph glyph-name="uni040E" horiz-adv-x="563" unicode="Ў" d="M551 690l-186 -520q-30 -83 -64 -127.5t-91 -49.5q-11 -1 -22 -1q-50 0 -102 15l10 65q37 -3 49.5 -4t18.5 -1q14 0 31 3t25 7t19.5 19t18 29.5t18.5 44.5l12 31h-38q-53 0 -69 47l-160 442h91l139 -399q6 -16 23 -16h40l147 415h90zM387 884l44 -7v-10 q0 -52 -38.5 -86.5t-110.5 -34.5t-111.5 34.5t-39.5 86.5v10l44 7q0 -36 27.5 -55.5t79.5 -19.5q50 0 78 19.5t27 55.5z"/>
<glyph glyph-name="uni040F" horiz-adv-x="674" unicode="Џ" d="M587 690v-690h-213l-4 -151h-60l-6 151h-217v690h88v-618h324v618h88z"/>
<glyph glyph-name="uni0410" horiz-adv-x="622" unicode="А" d="M429 292l-87 274q-9 26 -17 56h-28l-17 -56l-87 -274h236zM453 216h-284l-68 -216h-91l222 666q6 24 33 24h92q27 0 33 -24l222 -666h-91z"/>
<glyph glyph-name="uni0411" horiz-adv-x="599" unicode="Б" d="M175 324v-256q38 -1 146 -1q83 0 110.5 25t27.5 102q0 75 -27.5 102.5t-110.5 27.5h-146zM175 393h146q128 0 177.5 -44.5t49.5 -158.5q0 -66 -14 -106t-47 -60.5t-73 -26.5t-108 -6q-118 0 -217 9h-2v690q108 6 214 6q105 0 210 -6l-8 -73h-328v-224z"/>
<glyph glyph-name="uni0412" horiz-adv-x="620" unicode="В" d="M173 324v-256q41 -1 155 -1q84 0 114.5 24t30.5 96q0 79 -32.5 107t-118.5 30h-149zM173 391h148q77 1 106 25t29 92q0 69 -31.5 92t-117.5 23h-134v-232zM424 360v-4q75 -7 106.5 -52.5t31.5 -131.5q0 -104 -49 -142t-171 -38q-166 0 -255 8v690q79 8 224 8 q129 0 179.5 -37.5t50.5 -142.5q0 -75 -28 -113.5t-89 -44.5z"/>
<glyph glyph-name="uni0413" horiz-adv-x="518" unicode="Г" d="M85 0v561q0 57 35.5 93.5t90.5 36.5q196 0 286 -7l-4 -68h-253q-36 0 -52 -16.5t-16 -54.5v-545h-87z"/>
<glyph glyph-name="uni0414" horiz-adv-x="693" unicode="Д" d="M488 72v546h-142q-37 0 -53.5 -16t-18.5 -54q-9 -157 -31 -269t-69 -207h314zM661 72v-223h-61l-8 151h-500l-9 -151h-61v223h67q85 181 101 489q2 61 39 95t101 34h246v-618h85z"/>
<glyph glyph-name="uni0415" horiz-adv-x="560" unicode="Е" d="M505 73l4 -68q-92 -6 -295 -6q-62 0 -97.5 32.5t-35.5 87.5v452q0 55 36 87.5t97 32.5q203 0 295 -6l-4 -69h-277q-31 0 -45 -16t-14 -50v-150h297v-71h-297v-189q0 -35 14 -51t45 -16h277z"/>
<glyph glyph-name="uni0416" horiz-adv-x="908" unicode="Ж" d="M633 362v-4q36 -3 65.5 -21.5t48.5 -38t42.5 -70t35.5 -82t39 -109.5q9 -24 13 -37h-93q-64 175 -84 215q-44 86 -102 104q-18 5 -40 5h-66q6 -37 6 -73v-251h-84v251q0 29 7 73h-72q-51 0 -89 -38t-58 -82t-61 -156l-18 -48h-92q64 183 88 231q48 96 116 119q18 6 39 8 v4q-33 4 -61 21t-47 40t-38.5 64t-33.5 77t-34 94q-7 21 -11 32h90q57 -157 83 -203q52 -92 127 -92h71q-6 39 -6 79v216h84v-216q0 -48 -6 -79h66q25 0 46 8t39.5 28.5t31.5 38.5t30 56.5t26 62t28 74.5q7 18 10 27h90q-58 -165 -83 -213q-53 -100 -132 -113q-5 -1 -11 -2z "/>
<glyph glyph-name="uni0417" horiz-adv-x="550" unicode="З" d="M60 615l-7 67q89 16 190 16q128 0 177.5 -37.5t49.5 -142.5q0 -75 -27.5 -113.5t-88.5 -44.5v-4q74 -7 105 -52.5t31 -131.5q0 -104 -48.5 -142t-168.5 -38q-143 0 -236 22l7 64q113 -13 215 -13q81 0 111 24.5t30 97.5q0 79 -32 107.5t-116 28.5h-116v69h116 q74 0 102 24t28 92q0 70 -31 94t-113 24q-60 0 -178 -11z"/>
<glyph glyph-name="uni0418" horiz-adv-x="691" unicode="И" d="M604 0h-85v503q0 47 5 79h-5q-13 -34 -36 -75l-306 -507h-90v690h85v-498q0 -37 -5 -82h4q15 33 39 75l303 505h91v-690z"/>
<glyph glyph-name="uni0419" horiz-adv-x="691" unicode="Й" d="M604 0h-85v503q0 47 5 79h-5q-13 -34 -36 -75l-306 -507h-90v690h85v-498q0 -37 -5 -82h4q15 33 39 75l303 505h91v-690zM432 883h65v-11q0 -53 -39 -90t-110 -37q-72 0 -111.5 37.5t-39.5 90.5v10h65q0 -43 22.5 -66.5t63.5 -23.5t62.5 23.5t21.5 66.5z"/>
<glyph glyph-name="uni041A" horiz-adv-x="600" unicode="К" d="M325 362v-4q19 -2 36.5 -8t31.5 -12.5t28 -21.5t23.5 -26t22 -35t19.5 -38t20 -46.5t19.5 -50.5t21 -58.5t22.5 -61.5h-93l-15 42q-18 50 -26.5 73.5t-23.5 60.5t-25.5 53.5t-27 39t-32.5 32t-37 16.5t-46 7h-75q6 -38 6 -73v-251h-87v690h87v-216q0 -40 -6 -79h75 q34 0 62 16t46 34.5t40 65t32 72.5t33 93q3 9 5 14h90q-58 -165 -83 -213q-53 -100 -132 -113q-5 -1 -11 -2z"/>
<glyph glyph-name="uni041B" horiz-adv-x="651" unicode="Л" d="M564 690v-690h-88v618h-138q-68 0 -74 -70q-13 -148 -19 -201t-19 -113t-34 -104q-60 -131 -174 -131l-8 68q69 21 99 87q28 63 41 139.5t28 270.5q12 126 137 126h249z"/>
<glyph glyph-name="uni041C" horiz-adv-x="877" unicode="М" d="M640 690h99q36 0 36 -37l29 -653h-88l-25 617h-21l-154 -509q-8 -30 -38 -30h-79q-31 0 -40 30l-154 509h-20l-24 -617h-88l27 653q2 37 37 37h100q28 0 37 -30l129 -421q6 -18 15.5 -53.5t10.5 -39.5h18q3 11 11.5 43.5t14.5 51.5l129 419q8 30 38 30z"/>
<glyph glyph-name="uni041D" d="M581 690v-690h-88v331h-318v-331h-88v690h88v-283h318v283h88z" unicode="Н"/>
<glyph glyph-name="uni041E" d="M334 624q-102 0 -141 -60.5t-39 -218.5t39 -218.5t141 -60.5t141 60.5t39 218.5t-39 218.5t-141 60.5zM334 703q152 0 212 -78.5t60 -279.5t-60 -279.5t-212 -78.5t-212.5 78.5t-60.5 279.5t60.5 279.5t212.5 78.5z" unicode="О"/>
<glyph glyph-name="uni041F" horiz-adv-x="669" unicode="П" d="M582 690v-690h-88v618h-319v-618h-88v690h495z"/>
<glyph glyph-name="uni0420" horiz-adv-x="590" unicode="Р" d="M175 343h148q77 1 105.5 29.5t28.5 110.5t-29 111t-105 29q-108 0 -148 -1v-279zM87 0v690q84 9 238 9q125 0 173 -45.5t48 -170.5t-46.5 -170.5t-165.5 -45.5q-80 0 -159 9v-276h-88z"/>
<glyph glyph-name="uni0421" horiz-adv-x="570" unicode="С" d="M525 77l9 -66q-83 -23 -202 -23q-149 0 -210 80t-61 277t61 277t210 80q107 0 188 -20l-9 -67q-90 9 -179 9q-101 0 -139.5 -60.5t-38.5 -218.5t38.5 -218.5t139.5 -60.5q116 0 193 11z"/>
<glyph glyph-name="uni0422" horiz-adv-x="581" unicode="Т" d="M557 612h-223v-612h-88v612h-222v78h533v-78z"/>
<glyph glyph-name="uni0423" horiz-adv-x="563" unicode="У" d="M551 690l-186 -520q-30 -83 -64 -127.5t-91 -49.5q-11 -1 -22 -1q-50 0 -102 15l10 65q36 -2 56 -4q6 0 12 -1q14 1 28 3q20 4 28 7.5t19.5 18.5t18 29.5t18.5 44.5l12 31h-38q-53 0 -69 47l-160 442h91l139 -399q6 -16 23 -16h40l147 415h90z"/>
<glyph glyph-name="uni0424" horiz-adv-x="822" unicode="Ф" d="M451 575v-441q131 5 180 51.5t50 166.5q-1 123 -50 170.5t-180 52.5zM370 134v441q-131 -5 -180 -52.5t-49 -170.5q0 -120 49 -166.5t180 -51.5zM455 746v-97q174 -6 244.5 -72t71.5 -225q-1 -156 -71.5 -221t-244.5 -71v-97h-88v97q-174 6 -245 71t-71 221 q0 159 70.5 225t245.5 72v97h88z"/>
<glyph glyph-name="uni0425" horiz-adv-x="613" unicode="Х" d="M319 324h-26l-172 -324h-95l194 357l-181 333h95l158 -298h28l159 298h95l-182 -333l195 -357h-96z"/>
<glyph glyph-name="uni0426" horiz-adv-x="691" unicode="Ц" d="M659 72v-223h-61l-8 151h-503v690h88v-618h311v618h88v-618h85z"/>
<glyph glyph-name="uni0427" horiz-adv-x="625" unicode="Ч" d="M538 690v-690h-87v315q-115 -64 -237 -64q-79 0 -116.5 38t-37.5 118v283h88v-265q-1 -50 22 -72.5t75 -22.5q99 0 206 53v307h87z"/>
<glyph glyph-name="uni0428" horiz-adv-x="929" unicode="Ш" d="M842 690v-690h-755v690h86v-618h249v618h85v-618h249v618h86z"/>
<glyph glyph-name="uni0429" horiz-adv-x="952" unicode="Щ" d="M920 72v-223h-61l-8 151h-764v690h86v-618h245v618h86v-618h246v618h85v-618h85z"/>
<glyph glyph-name="uni042A" horiz-adv-x="748" unicode="Ъ" d="M331 338v-268q38 -1 144 -1q82 0 110 26t28 106q0 78 -28 107.5t-110 29.5h-144zM331 412h144q127 0 176.5 -47t49.5 -165q0 -120 -47.5 -164t-165.5 -44q-158 0 -246 8v612h-219v78h308v-278z"/>
<glyph glyph-name="uni042B" horiz-adv-x="846" unicode="Ы" d="M175 338v-268q38 -1 146 -1q82 0 110 26t28 106q0 78 -28 107.5t-110 29.5h-146zM759 690v-690h-87v690h87zM175 412h146q127 0 176.5 -47t49.5 -165q0 -120 -47.5 -164t-165.5 -44q-158 0 -245 8h-2v690h88v-278z"/>
<glyph glyph-name="uni042C" horiz-adv-x="594" unicode="Ь" d="M175 338v-268q38 -1 146 -1q82 0 110 26t28 106q0 78 -28 107.5t-110 29.5h-146zM175 412h146q127 0 176.5 -47t49.5 -165q0 -120 -47.5 -164t-165.5 -44q-158 0 -245 8h-2v690h88v-278z"/>
<glyph glyph-name="uni042D" horiz-adv-x="577" unicode="Э" d="M57 614l-10 68q81 20 191 20q154 0 215.5 -80t61.5 -277t-61.5 -277t-215.5 -80q-116 0 -197 23l9 67q76 -11 188 -11q103 0 144 58t42 207h-296v69h295q-6 124 -47.5 173t-137.5 49q-105 0 -181 -9z"/>
<glyph glyph-name="uni042E" horiz-adv-x="927" unicode="Ю" d="M591 66q102 0 141 60.5t40 218.5q-1 158 -40 218.5t-141 60.5q-98 0 -135 -60.5t-37 -218.5t37 -218.5t135 -60.5zM176 394h157q6 172 64.5 240.5t193.5 68.5q152 0 212.5 -78.5t60.5 -279.5t-60.5 -279.5t-212.5 -78.5q-140 0 -198 74t-61 262h-156v-323h-88v690h88 v-296z"/>
<glyph glyph-name="uni042F" horiz-adv-x="613" unicode="Я" d="M438 356v266q-38 1 -146 1q-73 0 -102 -28t-30 -103q0 -69 29 -102.5t99 -33.5h150zM201 308l-1 5q-130 18 -128 184q0 109 51 155.5t168 46.5q152 0 235 -9v-690h-88v281q-15 0 -65 -0.5t-85 -0.5q-69 0 -91 -73l-60 -207h-94l64 211q24 80 94 97z"/>
<glyph glyph-name="uni0430" horiz-adv-x="552" unicode="а" d="M139 168v-31q0 -38 18.5 -55.5t57.5 -17.5h4q37 0 84 18.5t88 54.5v98h-188q-64 -3 -64 -67zM82 414l-8 63q136 22 236 22q85 0 125.5 -35.5t40.5 -120.5v-343h-67l-10 80q-35 -36 -87.5 -62.5t-113.5 -26.5q-67 0 -106 35.5t-39 100.5v53q0 57 35.5 88.5t99.5 31.5h203 v43q-1 46 -22 65t-77 19q-71 0 -210 -13z"/>
<glyph glyph-name="uni0431" horiz-adv-x="574" unicode="б" d="M301 400q-85 0 -113.5 -38.5t-28.5 -124.5q0 -100 30 -138.5t106 -38.5q74 0 103.5 38t29.5 139q0 94 -27 128.5t-100 34.5zM473 737l20 -66q-36 -22 -69 -33t-75.5 -19t-65.5 -14q-70 -20 -100 -62t-39 -103q-6 -30 -9 -71h2q20 47 60.5 75t125.5 28q107 0 150.5 -54 t43.5 -181q0 -125 -48 -187t-175 -62q-61 0 -103.5 16t-65.5 40t-35.5 67.5t-15.5 82t-3 100.5q0 69 3.5 116t14.5 93t31.5 75.5t53.5 53.5t81 38q27 8 69.5 15.5t77.5 18.5t71 33z"/>
<glyph glyph-name="uni0432" horiz-adv-x="554" unicode="в" d="M159 220v-159q15 0 60 -0.5t73 -0.5q69 0 95.5 16t26.5 62t-28 64t-99 18h-128zM159 281h128q64 0 89 15.5t25 58.5q0 41 -27.5 55.5t-99.5 14.5q-34 1 -63 1t-52 -1v-144zM377 252v-3q66 -5 94 -36.5t28 -92.5q0 -73 -43.5 -100t-151.5 -27q-142 0 -225 6v487 q73 6 198 6q116 0 160.5 -27t44.5 -103q0 -52 -25 -79t-80 -31z"/>
<glyph glyph-name="uni0433" horiz-adv-x="462" unicode="г" d="M77 0v383q0 106 108 106q175 0 255 -8l-3 -60h-217q-31 0 -45 -14.5t-14 -45.5v-361h-84z"/>
<glyph glyph-name="uni0434" horiz-adv-x="587" unicode="д" d="M401 68v352h-105q-56 0 -61 -59q-13 -182 -73 -293h239zM549 68v-212h-56l-7 144h-394l-8 -144h-55v212h56q61 123 73 307q8 112 124 112h200v-419h67z"/>
<glyph glyph-name="uni0435" horiz-adv-x="540" unicode="е" d="M145 268h206q52 0 52 67v5q0 47 -27 67t-93 20q-77 0 -107 -34t-31 -125zM373 202h-227q7 -84 41 -113t112 -29q84 0 170 12l8 -57q-64 -27 -189 -27q-126 0 -179 58.5t-53 198.5q0 141 52 197.5t171 56.5q109 0 159 -39.5t51 -119.5q0 -138 -116 -138z"/>
<glyph glyph-name="uni0436" horiz-adv-x="789" unicode="ж" d="M563 255v-2q26 -3 46 -10t37.5 -24.5t28.5 -31.5t27 -50.5t24.5 -59t28.5 -77.5h-87q-53 134 -73 165q-35 54 -91 56h-4h-70q4 -34 4 -48v-173h-75v173q0 14 4 48h-75q-54 -1 -82 -40.5t-75 -155.5q-6 -16 -10 -25h-87q20 55 28.5 77.5t24.5 59t27 50.5t28.5 31.5 t37.5 24.5t46 10v2q-46 5 -78.5 36.5t-47 63t-47.5 120.5q-3 8 -5 12h85q19 -48 28.5 -70.5t25.5 -53.5t29 -44.5t32.5 -23.5t43.5 -10h71q-4 24 -4 57v145h75v-145q0 -33 -4 -57h66q55 0 85.5 44.5t73.5 157.5h86q-21 -56 -30 -79.5t-26 -59t-32 -50t-38 -27.5t-52 -16z "/>
<glyph glyph-name="uni0437" horiz-adv-x="496" unicode="з" d="M60 415l-6 65q62 15 150 15q124 0 171.5 -26.5t47.5 -103.5q0 -54 -23 -81t-79 -32v-3q63 -5 91.5 -36t28.5 -93q0 -75 -47 -102t-162 -27q-111 0 -194 15l7 65q90 -8 181 -8q74 0 100.5 15.5t26.5 59.5q0 45 -27.5 62t-98.5 17h-116v63h116q65 0 88.5 15.5t23.5 58.5 q0 42 -27.5 55.5t-106.5 13.5q-86 0 -145 -8z"/>
<glyph glyph-name="uni0438" horiz-adv-x="587" unicode="и" d="M507 0h-77v323q0 12 1.5 35.5t1.5 29.5h-2q-11 -27 -34 -57l-248 -331h-70v487h77v-323q0 -29 -3 -65h2q16 33 35 56l248 332h69v-487z"/>
<glyph glyph-name="uni0439" horiz-adv-x="587" unicode="й" d="M507 0h-77v323q0 12 1.5 35.5t1.5 29.5h-2q-11 -27 -34 -57l-248 -331h-70v487h77v-323q0 -29 -3 -65h2q16 33 35 56l248 332h69v-487zM374 703h65v-10q0 -52 -39 -89.5t-110 -37.5q-72 0 -111.5 37.5t-39.5 89.5v10h65q0 -43 22.5 -66.5t63.5 -23.5q40 0 62 23.5 t22 66.5z"/>
<glyph glyph-name="uni043A" horiz-adv-x="536" unicode="к" d="M302 255v-3q27 -2 48 -9t39 -24t30 -32t28 -49.5t25.5 -59.5t29.5 -78h-89q-17 44 -24 61.5t-20.5 48.5t-21.5 42t-21.5 28.5t-26 23t-29.5 11t-38 5.5h-5h-67q4 -32 4 -47v-173h-85v487h85v-145q0 -26 -5 -56h68q35 0 60 12t45.5 42.5t33.5 59.5t34 87h88 q-12 -33 -17.5 -46.5t-16 -39.5t-16.5 -36.5t-16 -29.5t-18 -27t-20 -19.5t-23.5 -17t-26.5 -10t-32 -6.5z"/>
<glyph glyph-name="uni043B" horiz-adv-x="562" unicode="л" d="M482 487v-487h-85v420h-106q-31 0 -44.5 -13.5t-18.5 -47.5q-24 -194 -47 -256q-37 -107 -153 -108l-9 65q39 9 57 24.5t29 43.5q24 61 43 245q7 58 37 86t90 28h207z"/>
<glyph glyph-name="uni043C" horiz-adv-x="748" unicode="м" d="M537 487h89q32 0 32 -32l21 -455h-79l-19 422h-17l-124 -341q-9 -28 -34 -28h-66q-25 0 -34 28l-124 341h-17l-18 -422h-78l20 455q0 32 33 32h88q25 0 33 -28l101 -280q10 -28 21 -70h16q14 49 21 70l101 280q9 28 34 28z"/>
<glyph glyph-name="uni043D" horiz-adv-x="582" unicode="н" d="M503 487v-487h-84v226h-256v-226h-84v487h84v-196h256v196h84z"/>
<glyph glyph-name="uni043E" horiz-adv-x="571" unicode="о" d="M286 427q-81 0 -111 -39t-30 -145t30 -145t111 -39q80 0 110 39t30 145t-30 145t-110 39zM286 499q125 0 177 -58t52 -198t-52 -198t-177 -58q-126 0 -178 58t-52 198t52 198t178 58z"/>
<glyph glyph-name="uni043F" horiz-adv-x="575" unicode="п" d="M496 487v-487h-84v418h-250v-418h-83v487h417z"/>
<glyph glyph-name="uni0440" horiz-adv-x="583" unicode="р" d="M164 350v-258q102 -30 156 -30q66 0 92 37t26 142q0 102 -24.5 143t-82.5 41q-67 0 -167 -75zM149 487l7 -78q40 42 94.5 66t107.5 24q88 0 128 -64t40 -194q0 -138 -44 -195.5t-140 -57.5q-98 0 -180 50q3 -28 3 -62q0 -17 -1 -36v-141h-84v688h69z"/>
<glyph glyph-name="uni0441" horiz-adv-x="492" unicode="с" d="M445 70l8 -57q-71 -25 -166 -25q-127 0 -179 57.5t-52 198.5q0 140 52.5 197.5t178.5 57.5q96 0 157 -23l-11 -55q-66 6 -132 6q-87 0 -121.5 -39t-34.5 -144q0 -106 34 -145t122 -39q81 0 144 10z"/>
<glyph glyph-name="uni0442" horiz-adv-x="490" unicode="т" d="M464 417h-176v-417h-85v417h-177v70h438v-70z"/>
<glyph glyph-name="uni0443" horiz-adv-x="532" unicode="у" d="M511 487l-194 -514q-39 -102 -92 -142q-48 -36 -126 -36q-26 0 -55 4l8 59q11 -1 20 -1q64 0 97 23q41 29 68 99l9 21h-19q-23 0 -31 22l-176 465h91l129 -363q11 -33 18 -59h14q7 20 20 59l128 363h91z"/>
<glyph glyph-name="uni0444" horiz-adv-x="719" unicode="ф" d="M396 427v-366q103 5 144 45t41 137t-41 138t-144 46zM323 61v366q-104 -5 -145 -45.5t-41 -138.5q0 -97 41 -137t145 -45zM399 700v-202q143 -6 204 -65t61 -190q0 -130 -61 -189t-204 -65v-190h-79v190q-143 6 -204 65t-61 189q0 131 61 190t204 65v202h79z"/>
<glyph glyph-name="uni0445" horiz-adv-x="531" unicode="х" d="M276 220h-20l-139 -220h-93l163 251l-150 236h92l125 -201h23l126 201h92l-151 -236l163 -251h-93z"/>
<glyph glyph-name="uni0446" horiz-adv-x="594" unicode="ц" d="M556 -144h-56l-9 144h-411v487h83v-419h242v419h84v-419h67v-212z"/>
<glyph glyph-name="uni0447" horiz-adv-x="532" unicode="ч" d="M451 487v-487h-84v205q-100 -36 -190 -36q-122 0 -122 107v211h84v-183q0 -36 15 -50.5t51 -14.5q81 0 162 34v214h84z"/>
<glyph glyph-name="uni0448" horiz-adv-x="806" unicode="ш" d="M726 487v-487h-647v487h83v-419h202v419h77v-419h203v419h82z"/>
<glyph glyph-name="uni0449" horiz-adv-x="831" unicode="щ" d="M794 -144h-57l-8 144h-649v487h82v-419h202v419h77v-419h204v419h82v-419h67v-212z"/>
<glyph glyph-name="uni044A" horiz-adv-x="632" unicode="ъ" d="M280 62l113 -1q62 0 85.5 17.5t23.5 70.5q0 49 -22.5 67.5t-86.5 18.5h-113v-173zM280 298h113q112 0 154 -33t42 -119q0 -87 -41.5 -119.5t-141.5 -32.5q-132 0 -209 6v419h-171v68h254v-189z"/>
<glyph glyph-name="uni044B" horiz-adv-x="721" unicode="ы" d="M162 62l115 -1q59 0 81.5 17.5t22.5 70.5q0 49 -22 67.5t-82 18.5h-115v-173zM642 487v-487h-86v487h86zM162 298h115q108 0 149 -33t41 -119q0 -87 -40 -119.5t-137 -32.5q-131 0 -208 6h-3v487h83v-189z"/>
<glyph glyph-name="uni044C" horiz-adv-x="516" unicode="ь" d="M162 62l115 -1q62 0 85.5 17.5t23.5 70.5q0 49 -22.5 67.5t-86.5 18.5h-115v-173zM162 298h115q112 0 154 -33t42 -119q0 -87 -41.5 -119.5t-141.5 -32.5q-131 0 -208 6h-3v487h83v-189z"/>
<glyph glyph-name="uni044D" horiz-adv-x="506" unicode="э" d="M55 417l-9 59q61 17 166 17q132 0 185 -55.5t53 -196.5q0 -139 -53 -195t-185 -56q-104 0 -171 19l9 60q84 -7 162 -7q82 0 115 32.5t37 121.5h-248v64h247q-5 81 -39 111.5t-112 30.5q-70 0 -157 -5z"/>
<glyph glyph-name="uni044E" horiz-adv-x="795" unicode="ю" d="M507 63q81 0 112 39t32 143q-1 105 -32 143.5t-112 38.5q-79 0 -108 -38.5t-29 -143.5q0 -104 29 -143t108 -39zM164 284h125q6 122 54.5 168.5t164.5 46.5q129 0 180 -54.5t51 -200.5q0 -144 -51 -198.5t-180 -54.5q-118 0 -166.5 49t-52.5 178h-125v-218h-84v487h84 v-203z"/>
<glyph glyph-name="uni044F" horiz-adv-x="543" unicode="я" d="M381 244v179q-15 0 -58.5 0.5t-71.5 0.5q-59 0 -79.5 -19.5t-20.5 -68.5q0 -51 21.5 -71.5t81.5 -20.5h127zM179 208v4q-59 8 -85 41.5t-26 94.5q0 72 40.5 108t140.5 36q143 0 215 -7v-485h-83v180h-131q-71 0 -85 -50l-37 -130h-88l44 146q17 54 95 62z"/>
<glyph glyph-name="uni0451" horiz-adv-x="540" unicode="ё" d="M145 268h206q52 0 52 67v5q0 47 -27 67t-93 20q-77 0 -107 -34t-31 -125zM373 202h-227q7 -84 41 -113t112 -29q84 0 170 12l8 -57q-64 -27 -189 -27q-126 0 -179 58.5t-53 198.5q0 141 52 197.5t171 56.5q109 0 159 -39.5t51 -119.5q0 -138 -116 -138zM384 587h-28 q-24 0 -24 24v55q0 24 24 24h28q24 0 24 -24v-55q0 -24 -24 -24zM207 587h-29q-23 0 -23 24v55q0 24 23 24h29q23 0 23 -24v-55q0 -24 -23 -24z"/>
<glyph glyph-name="uni0452" horiz-adv-x="585" unicode="ђ" d="M188 494v-84q0 -44 -5 -86q112 78 214 78q133 0 133 -134v-268h-85v245q0 44 -19.5 62.5t-65.5 18.5q-67 0 -173 -65v-261h-85v494h-75v49h75v157h86v-157h186v-49h-186z"/>
<glyph glyph-name="uni0453" horiz-adv-x="462" unicode="ѓ" d="M77 0v383q0 106 108 106q175 0 255 -8l-3 -60h-217q-31 0 -45 -14.5t-14 -45.5v-361h-84zM423 669l-192 -121l-29 39l172 147z"/>
<glyph glyph-name="uni0454" horiz-adv-x="507" unicode="є" d="M457 69l8 -60q-65 -19 -170 -19q-132 0 -185.5 56t-53.5 195q0 141 53.5 196.5t185.5 55.5q105 0 165 -17l-8 -59q-87 5 -157 5q-78 0 -112 -30.5t-39 -111.5h248v-64h-249q4 -88 37 -121t115 -33q78 0 162 7z"/>
<glyph glyph-name="uni0455" horiz-adv-x="511" unicode="ѕ" d="M302 197l-140 32q-60 14 -85 45t-25 91q0 81 41 107.5t135 26.5h14q116 -2 204 -15l-6 -62q-155 5 -186 5h-13q-63 0 -85 -9.5t-22 -52.5q0 -35 15.5 -48t55.5 -22l142 -32q60 -15 86.5 -44.5t26.5 -89.5q0 -85 -47 -112.5t-161 -27.5q-102 0 -190 14l6 62q70 -4 139 -4 h28q85 0 114 13t29 55q0 33 -17.5 45.5t-58.5 22.5z"/>
<glyph glyph-name="uni0456" horiz-adv-x="251" unicode="і" d="M168 0h-85v487h85v-487zM106 694h40q25 0 25 -26v-57q0 -26 -25 -26h-40q-26 0 -26 26v57q0 26 26 26z"/>
<glyph glyph-name="uni0457" horiz-adv-x="251" unicode="ї" d="M168 0h-85v487h85v-487zM200 690h28q24 0 24 -24v-55q0 -24 -24 -24h-28q-24 0 -24 24v55q0 24 24 24zM22 690h29q23 0 23 -24v-55q0 -24 -23 -24h-29q-23 0 -23 24v55q0 24 23 24z"/>
<glyph glyph-name="uni0458" horiz-adv-x="252" unicode="ј" d="M169 487v-499q0 -58 -25 -108t-69 -83l-47 37q55 68 55 154v499h86zM106 694h40q26 0 26 -26v-57q0 -26 -26 -26h-40q-25 0 -25 26v57q0 26 25 26z"/>
<glyph glyph-name="uni0459" horiz-adv-x="803" unicode="љ" d="M458 62l102 -1q65 0 89 17t24 72q0 50 -22.5 69.5t-83.5 19.5h-109v-177zM458 301h109q110 0 151 -33.5t41 -120.5q0 -90 -42 -121.5t-144 -31.5q-122 0 -196 6v422h-82q-28 0 -41 -11t-16 -37q-13 -120 -23 -175.5t-30 -100.5q-40 -101 -150 -101l-7 58q57 22 79 64 q21 40 29.5 87.5t23.5 182.5q9 98 112 98h186v-186z"/>
<glyph glyph-name="uni045A" horiz-adv-x="810" unicode="њ" d="M464 62l111 -1q60 0 83 18t23 71q0 50 -22 69t-84 19h-111v-176zM464 300h111q110 0 151 -33t41 -120q0 -88 -40.5 -120.5t-138.5 -32.5q-128 0 -204 6v238h-226v-238h-78v487h78v-188h226v188h80v-187z"/>
<glyph glyph-name="uni045B" horiz-adv-x="585" unicode="ћ" d="M188 494v-84q0 -44 -5 -86q112 78 214 78q131 0 133 -134v-280q0 -58 -25 -108t-69 -83l-47 37q56 69 56 154v257q0 44 -19.5 62.5t-65.5 18.5q-67 0 -173 -65v-261h-85v494h-75v49h75v157h86v-157h186v-49h-186z"/>
<glyph glyph-name="uni045C" horiz-adv-x="536" unicode="ќ" d="M302 255v-3q27 -2 48 -9t39 -24t30 -32t28 -49.5t25.5 -59.5t29.5 -78h-89q-17 44 -24 61.5t-20.5 48.5t-21.5 42t-21.5 28.5t-26 23t-29.5 11t-38 5.5h-5h-67q4 -32 4 -47v-173h-85v487h85v-145q0 -26 -5 -56h68q35 0 60 12t45.5 42.5t33.5 59.5t34 87h88 q-12 -33 -17.5 -46.5t-16 -39.5t-16.5 -36.5t-16 -29.5t-18 -27t-20 -19.5t-23.5 -17t-26.5 -10t-32 -6.5zM243 548l-29 39l172 147l49 -65z"/>
<glyph glyph-name="uni045D" horiz-adv-x="587" unicode="ѝ" d="M507 0h-77v323q0 12 1.5 35.5t1.5 29.5h-2q-11 -27 -34 -57l-248 -331h-70v487h77v-323q0 -29 -3 -65h2q16 33 35 56l248 332h69v-487zM339 587l-29 -39l-192 121l49 65z"/>
<glyph glyph-name="uni045E" horiz-adv-x="532" unicode="ў" d="M511 487l-194 -514q-39 -102 -92 -142q-48 -36 -126 -36q-26 0 -55 4l8 59q11 -1 20 -1q64 0 97 23q41 29 68 99l9 21h-19q-23 0 -31 22l-176 465h91l129 -363q11 -33 18 -59h14q7 20 20 59l128 363h91zM350 703h65v-10q0 -52 -39 -89.5t-110 -37.5q-72 0 -111.5 37.5 t-39.5 89.5v10h65q0 -43 22.5 -66.5t63.5 -23.5q40 0 62 23.5t22 66.5z"/>
<glyph glyph-name="uni045F" horiz-adv-x="580" unicode="џ" d="M500 487v-487h-175l-7 -165h-57l-8 165h-173v487h85v-419h250v419h85z"/>
<glyph glyph-name="uni0490" horiz-adv-x="523" unicode="Ґ" d="M498 616h-258q-36 0 -52 -16.5t-16 -54.5v-545h-87v561q0 57 35.5 93.5t90.5 36.5q151 0 224 -6l10 157h57v-165z"/>
<glyph glyph-name="uni0491" horiz-adv-x="464" unicode="ґ" d="M442 633v-152l-4 -60h-218h-4q-27 0 -40.5 -14t-13.5 -46v-361h-85v383q0 106 108 106q129 0 191 -3l9 147h57z"/>
<glyph glyph-name="uni04B0" horiz-adv-x="580" unicode="Ұ" d="M484 223h-149v-223h-88v223h-150v52h133l-212 415h93l145 -291q5 -10 32 -78h7q19 54 31 77l145 292h92l-211 -415h132v-52z"/>
<glyph glyph-name="uni04B1" horiz-adv-x="584" unicode="ұ" d="M353 74h133v-54h-150v-221h-87v221h-151v54h134l-213 413h93l145 -289q8 -17 31 -77h8q23 60 31 77l145 289h93z"/>
<glyph glyph-name="uni04B6" horiz-adv-x="653" unicode="Ҷ" d="M621 61v-212h-60l-9 151h-101v311q-114 -60 -232 -60q-81 0 -120 38.5t-39 117.5v283h89v-265q-1 -51 22.5 -74t76.5 -23q96 0 203 53v309h89v-629h81z"/>
<glyph glyph-name="uni04B7" horiz-adv-x="556" unicode="ҷ" d="M519 68v-212h-57l-8 144h-87v205q-100 -36 -190 -36q-122 0 -122 107v211h84v-183q0 -36 15 -50.5t51 -14.5q81 0 162 34v214h84v-419h68z"/>
<glyph glyph-name="uni04BA" horiz-adv-x="626" unicode="Һ" d="M175 690v-310q112 59 233 59q80 0 119 -38.5t39 -117.5v-283h-88v265q1 51 -22.5 74t-77.5 23q-98 0 -203 -53v-309h-88v690h88z"/>
<glyph glyph-name="uni04C0" horiz-adv-x="263" unicode="Ӏ" d="M175 0h-87v690h87v-690z"/>
<glyph glyph-name="endash" horiz-adv-x="592" unicode="–" d="M520 220h-448v65h448v-65z"/>
<glyph glyph-name="emdash" horiz-adv-x="896" unicode="—" d="M824 220h-752v65h752v-65z"/>
<glyph glyph-name="quoteleft" horiz-adv-x="217" unicode="‘" d="M121 496h-25q-17 0 -24 6.5t-7 23.5v60q1 77 35 144l40 -11q-10 -54 -10 -112q25 0 23 -26v-55q-1 -30 -32 -30z"/>
<glyph glyph-name="quotesinglbase" horiz-adv-x="228" unicode="‚" d="M103 111h25q17 0 24 -6.5t7 -23.5v-59q-1 -77 -35 -144l-41 11q10 54 10 112q-25 0 -23 25v55q1 30 33 30z"/>
<glyph glyph-name="quotedblleft" horiz-adv-x="369" unicode="“" d="M121 496h-25q-17 0 -24 6.5t-7 23.5v60q1 77 35 144l40 -11q-10 -54 -10 -112q25 0 23 -26v-55q-1 -30 -32 -30zM273 496h-24q-17 0 -24 6.5t-7 23.5v60q1 79 34 144l41 -11q-10 -54 -10 -112q25 0 23 -26v-55q-1 -30 -33 -30z"/>
<glyph glyph-name="quotedblright" horiz-adv-x="367" unicode="”" d="M248 723h25q17 0 23.5 -6.5t6.5 -23.5v-60q-2 -80 -34 -143l-40 10q10 63 10 112q-24 0 -24 26v55q1 30 33 30zM95 723h25q17 0 24 -6.5t7 -23.5v-60q-1 -78 -35 -143l-40 10q10 54 10 112q-25 0 -23 26v55q1 30 32 30z"/>
<glyph glyph-name="dagger" horiz-adv-x="453" unicode="†" d="M43 412v75h130v-65zM411 487v-75l-131 10v65h131zM262 -110h-70v592l-4 209h77l-3 -209v-592z"/>
<glyph glyph-name="daggerdbl" horiz-adv-x="491" unicode="‡" d="M429 94h-130v65l130 10v-75zM192 159v-65h-131v75zM429 412l-130 10v65h130v-75zM192 422l-131 -10v75h131v-65zM280 485v-390l4 -205h-78l4 205v390l-4 206h78z"/>
<glyph glyph-name="ellipsis" horiz-adv-x="845" unicode="…" d="M714 118h28q17 0 24.5 -7t7.5 -25v-54q0 -18 -7.5 -25t-24.5 -7h-28q-18 0 -25 7t-7 25v54q0 18 7 25t25 7zM406 118h28q17 0 24 -7t7 -25v-54q0 -18 -7 -25t-24 -7h-28q-18 0 -25 7t-7 25v54q0 18 7 25t25 7zM97 118h29q17 0 24 -7t7 -25v-54q0 -18 -7 -25t-24 -7h-29 q-17 0 -24 7t-7 25v54q0 18 7 25t24 7z"/>
<glyph glyph-name="perthousand" horiz-adv-x="1267" unicode="‰" d="M1057 346q-54 0 -74 -32.5t-20 -117.5t20 -118.5t74 -33.5t74.5 33t20.5 119q0 85 -20.5 117.5t-74.5 32.5zM685 346q-54 0 -74 -31.5t-20 -110.5v-8v-8q0 -79 20 -111.5t74 -32.5t75 33.5t21 118.5q0 84 -21 117t-75 33zM1057 400q89 0 125 -47t36 -157q0 -111 -36 -158 t-125 -47q-88 0 -124 47t-36 158q0 110 36 157t124 47zM686 400q88 0 124 -47t36 -157q0 -111 -36 -158t-124 -47t-124 47t-36 158q0 110 36 157t124 47zM207 649q-54 0 -74.5 -33t-20.5 -118t20.5 -118t74.5 -33t74.5 33t20.5 118t-20.5 118t-74.5 33zM252 0h-60l447 690 h60zM207 703q89 0 125 -47t36 -158t-36 -158t-125 -47q-88 0 -124 47t-36 158t36 158t124 47z"/>
<glyph glyph-name="guilsinglleft" horiz-adv-x="285" unicode="‹" d="M241 429l-126 -178l127 -182l-45 -30l-161 202v20l160 198z"/>
<glyph glyph-name="guilsinglright" horiz-adv-x="287" unicode="›" d="M249 261v-20l-162 -202l-44 30l127 182l-126 178l44 30z"/>
<glyph glyph-name="fraction" horiz-adv-x="160" unicode="⁄" d="M-113 0h-61l447 690h61z"/>
<glyph glyph-name="Euro" horiz-adv-x="639" unicode="€" d="M578 79l9 -68q-77 -23 -177 -23q-131 0 -195 67t-77 206h-85v53h82v31q0 32 1 47h-83v53h87q15 130 78.5 193.5t191.5 63.5q94 0 166 -20l-10 -68q-58 10 -121 10q-20 0 -40 -1q-78 -3 -119 -46t-54 -132h255l-7 -53h-253q0 -8 -0.5 -24t-0.5 -24l1 -30h220l-7 -53h-210 q11 -98 52 -145t123 -49q16 -1 31 -1q78 0 142 13z"/>
<glyph glyph-name="trademark" horiz-adv-x="964" unicode="™" d="M391 696v-51h-131v-329h-62v329h-131v51h324zM890 316h-57l-16 333h-11l-92 -268q-6 -20 -26 -20h-47q-18 0 -25 20l-92 268h-12l-15 -333h-57l16 356q2 24 24 24h63q19 0 25 -20l76 -220q3 -10 8.5 -29.5t6.5 -23.5h11q3 9 8 27t8 27l75 219q6 20 24 20h66q22 0 24 -24z "/>
<glyph glyph-name="partialdiff" horiz-adv-x="572" unicode="∂" d="M268 64q43 0 72 18.5t45.5 56t24.5 78.5t13 102q-64 58 -143 58q-68 0 -103 -40t-38 -111v-12q0 -64 30 -107t99 -43zM131 638v65h16q101 0 167 -12.5t116 -52t66 -103t16 -143.5q0 -26 -1 -55q-9 -172 -64 -260.5t-180 -88.5q-61 0 -105 20t-67 55t-32 72t-9 76v15 q5 101 58 162t148 61h3q104 -2 162 -78q1 15 1 28q0 137 -57.5 188t-237.5 51z"/>
<glyph glyph-name="emptyset" horiz-adv-x="685" unicode="∅" d="M359 171h-39q-7 0 -7 -8v-37q0 -7 7 -7h39q8 0 8 7v37q0 8 -8 8zM312 241h54q0 35 14.5 64.5t32.5 46.5t32.5 43.5t14.5 56.5q0 93 -117 93q-51 0 -122 -11l3 -45q60 9 119 9q66 0 66 -46q0 -21 -15 -44.5t-33.5 -42.5t-33.5 -52t-15 -72zM343 633q121 0 206.5 -85.5 t85.5 -206.5t-85.5 -207t-206.5 -86t-207 86t-86 207t86 206.5t207 85.5z"/>
<glyph glyph-name="product" horiz-adv-x="722" unicode="∏" d="M683 618h-104v-721h-84v721h-268v-721h-84v721h-104v72h644v-72z"/>
<glyph glyph-name="summation" horiz-adv-x="590" unicode="∑" d="M528 618h-370l166 -270l-180 -386h394v-71h-489v71l180 386l-168 270v72h467v-72z"/>
<glyph glyph-name="minus" horiz-adv-x="585" unicode="−" d="M512 263h-438v64h438v-64z"/>
<glyph glyph-name="radical" horiz-adv-x="566" unicode="√" d="M542 876l-257 -868q-3 -8 -13 -8h-99q-11 0 -13 8l-126 479h72l110 -429h13l240 818h73z"/>
<glyph glyph-name="infinity" horiz-adv-x="780" unicode="∞" d="M559 228q41 0 64 20.5t23 60.5q0 74 -79 74q-31 0 -58 -13.5t-42 -28t-37 -40.5q57 -73 129 -73zM222 228q40 0 69 19t62 57q-33 40 -62 59.5t-75 19.5q-82 0 -82 -74q0 -81 88 -81zM583 446q59 0 98 -34.5t39 -100.5q0 -69 -42.5 -107.5t-107.5 -38.5q-95 0 -178 93 q-91 -93 -184 -93q-63 0 -105 38.5t-42 107.5q0 67 39.5 101t103.5 34q99 0 187 -97q92 97 192 97z"/>
<glyph glyph-name="approxequal" horiz-adv-x="587" unicode="≈" d="M134 136h-57q-2 16 -2 29q0 41 22.5 66t69.5 25h6q35 -1 117.5 -29t119.5 -30h4q21 0 30 10.5t9 42.5h58q2 -15 2 -28q0 -39 -20.5 -64t-75.5 -25h-4q-39 1 -121 29.5t-115 29.5q-24 0 -33.5 -11.5t-9.5 -44.5zM134 327h-57q-2 16 -2 29q0 41 22.5 66t69.5 25h6 q35 -1 117.5 -29t119.5 -29h4q22 0 30.5 10t8.5 43h58q2 -15 2 -28q0 -39 -20.5 -64.5t-75.5 -25.5h-4q-39 1 -121 29.5t-115 29.5h-4q-21 0 -30 -11.5t-9 -44.5z"/>
<glyph glyph-name="notequal" horiz-adv-x="616" unicode="≠" d="M362 367l-90 -148h261v-64h-300l-74 -123l-27 14l67 109h-105v64h143l90 148h-233v63h271l66 109l27 -14l-58 -95h133v-63h-171z"/>
<glyph glyph-name="lessequal" horiz-adv-x="567" unicode="≤" d="M497 79h-428v63h428v-63zM489 467l-335 -106l335 -97v-68l-410 131v68l410 140v-68z"/>
<glyph glyph-name="greaterequal" horiz-adv-x="567" unicode="≥" d="M498 79h-428v63h428v-63zM488 395v-68l-409 -131v68l334 97l-334 106v68z"/>
<glyph glyph-name="lozenge" horiz-adv-x="576" unicode="◊" d="M106 346l183 -263l182 263l-182 261zM297 692l243 -338q2 -4 2 -8t-2 -8l-243 -340q-5 -6 -9 -6t-7 6l-245 340q-2 4 -2 8t2 8l245 338q3 6 7 6t9 -6z"/>
<glyph glyph-name="fi" horiz-adv-x="607" unicode="ﬁ" d="M461 694h40q26 0 26 -26v-57q0 -26 -26 -26h-40q-25 0 -25 26v57q0 26 25 26zM524 487v-487h-84v420h-239v-420h-85v420h-88v62l88 4v78q0 76 33 114.5t109 38.5q66 0 114 -7v-63h-84q-48 0 -67.5 -20.5t-19.5 -71.5v-68h323z"/>
<glyph glyph-name="fl" horiz-adv-x="669" unicode="ﬂ" d="M650 58l9 -54q-27 -13 -89 -13q-55 0 -87 30t-32 84v543h-164h-4q-45 0 -63.5 -20.5t-18.5 -72.5v-68h146v-67h-146v-420h-85v420h-88v62l88 4v78q0 77 32.5 115t104.5 38h4q206 0 279 -12v-581q0 -66 66 -66h48z"/>
</font>
</defs>
</svg>
